<svg width="22" height="22" viewBox="0 0 22 22" fill="none" xmlns="http://www.w3.org/2000/svg">
<path d="M20.2929 0.292893C20.6834 -0.0976306 21.3164 -0.0976306 21.707 0.292893C22.0975 0.683417 22.0975 1.31643 21.707 1.70696L12.414 10.9999L21.707 20.2929L21.7753 20.3691C22.0957 20.7618 22.0731 21.3408 21.707 21.707C21.3408 22.0731 20.7618 22.0957 20.3691 21.7753L20.2929 21.707L10.9999 12.414L1.70696 21.707C1.31643 22.0975 0.683417 22.0975 0.292893 21.707C-0.0976306 21.3164 -0.0976306 20.6834 0.292893 20.2929L9.58586 10.9999L0.292893 1.70696C-0.0976311 1.31643 -0.0976311 0.683417 0.292893 0.292893C0.683417 -0.0976311 1.31643 -0.0976311 1.70696 0.292893L10.9999 9.58586L20.2929 0.292893Z" fill="#4F4B48"/>
</svg>
