<svg width="22" height="22" viewBox="0 0 22 22" fill="none" xmlns="http://www.w3.org/2000/svg">
<path d="M11.9091 15.5455C11.9091 18.5579 9.46701 21 6.45455 21C3.44208 21 1 18.5579 1 15.5455C1 12.533 3.44208 10.0909 6.45455 10.0909C9.46701 10.0909 11.9091 12.533 11.9091 15.5455Z" stroke="#F8F7F5"/>
<path d="M11.9091 6.45455C11.9091 9.46701 9.46701 11.9091 6.45455 11.9091C3.44208 11.9091 1 9.46701 1 6.45455C1 3.44208 3.44208 1 6.45455 1C9.46701 1 11.9091 3.44208 11.9091 6.45455Z" stroke="#F8F7F5"/>
<path d="M21 15.5455C21 18.5579 18.5579 21 15.5455 21C12.533 21 10.0909 18.5579 10.0909 15.5455C10.0909 12.533 12.533 10.0909 15.5455 10.0909C18.5579 10.0909 21 12.533 21 15.5455Z" stroke="#F8F7F5"/>
<path d="M21 6.45455C21 9.46701 18.5579 11.9091 15.5455 11.9091C12.533 11.9091 10.0909 9.46701 10.0909 6.45455C10.0909 3.44208 12.533 1 15.5455 1C18.5579 1 21 3.44208 21 6.45455Z" stroke="#F8F7F5"/>
</svg>
