<svg width="32" height="18" viewBox="0 0 32 18" fill="none" xmlns="http://www.w3.org/2000/svg">
<path fill-rule="evenodd" clip-rule="evenodd" d="M17.5693 17.8851C17.5693 17.8851 18.1469 17.8221 18.4427 17.5103C18.7134 17.2245 18.704 16.6853 18.704 16.6853C18.704 16.6853 18.668 14.1673 19.8591 13.7955C21.0329 13.4298 22.5402 16.2305 24.1397 17.3075C25.348 18.1217 26.2651 17.9435 26.2651 17.9435L30.5395 17.8851C30.5395 17.8851 32.7745 17.7499 31.7149 16.0247C31.6272 15.8833 31.0967 14.748 28.5377 12.4158C25.8566 9.97464 26.2166 10.3695 29.4439 6.14614C31.4097 3.57434 32.1954 2.00422 31.9497 1.33285C31.7165 0.690673 30.2703 0.861204 30.2703 0.861204L25.4591 0.890394C25.4591 0.890394 25.1023 0.842768 24.8378 0.997936C24.5795 1.15003 24.412 1.50492 24.412 1.50492C24.412 1.50492 23.6514 3.49445 22.6356 5.18747C20.493 8.75788 19.6369 8.94684 19.2863 8.72561C18.4708 8.20787 18.6743 6.64851 18.6743 5.54083C18.6743 2.0795 19.2096 0.636902 17.6335 0.263576C17.1107 0.139135 16.7257 0.0577098 15.3875 0.043883C13.6706 0.0269835 12.2182 0.0500282 11.3949 0.444862C10.8471 0.707572 10.4245 1.29445 10.6828 1.32824C11.0005 1.36973 11.7205 1.51875 12.1024 2.02881C12.5954 2.68789 12.5782 4.16582 12.5782 4.16582C12.5782 4.16582 12.8614 8.24014 11.9161 8.74559C11.2681 9.09279 10.3792 8.38455 8.46815 5.14446C7.48995 3.48523 6.75121 1.65087 6.75121 1.65087C6.75121 1.65087 6.60878 1.30827 6.35367 1.12391C6.04534 0.901148 5.61493 0.832014 5.61493 0.832014L1.04321 0.861204C1.04321 0.861204 0.356125 0.87964 0.104141 1.17308C-0.119672 1.43271 0.0869242 1.97196 0.0869242 1.97196C0.0869242 1.97196 3.66636 10.1928 7.72002 14.3362C11.4372 18.134 15.6567 17.8851 15.6567 17.8851H17.5693Z" fill="#4F4B48"/>
</svg>
