<svg width="10" height="18" viewBox="0 0 10 18" fill="none" xmlns="http://www.w3.org/2000/svg">
<path d="M0.00188986 1.00525C0.00112885 1.13678 0.0263402 1.26717 0.0760772 1.38894C0.125814 1.51071 0.199101 1.62147 0.291732 1.71485L7.58772 9.00085L0.291734 16.2869C0.103533 16.4751 -0.00219743 16.7303 -0.0021974 16.9965C-0.00219736 17.2626 0.103533 17.5179 0.291734 17.7061C0.479934 17.8943 0.735188 18 1.00134 18C1.2675 18 1.52275 17.8943 1.71095 17.7061L9.70656 9.71046C9.80024 9.61755 9.87459 9.50701 9.92533 9.38522C9.97607 9.26343 10.0022 9.13279 10.0022 9.00085C10.0022 8.86891 9.97607 8.73828 9.92533 8.61649C9.87459 8.49469 9.80024 8.38416 9.70656 8.29124L1.71095 0.295636C1.61804 0.201959 1.5075 0.127605 1.38571 0.0768635C1.26391 0.0261223 1.13328 -7.4433e-07 1.00134 -7.27028e-07C0.869401 -7.09726e-07 0.738767 0.0261224 0.616974 0.0768636C0.495183 0.127605 0.384643 0.201959 0.291731 0.295636C0.199101 0.389026 0.125814 0.499778 0.0760771 0.621549C0.0263401 0.74332 0.00112881 0.873712 0.00188986 1.00525Z" fill="#F8F7F5"/>
</svg>
