<svg width="30" height="28" viewBox="0 0 30 28" fill="none" xmlns="http://www.w3.org/2000/svg">
<path d="M27.779 0.502719C27.4085 0.529727 27.0449 0.616817 26.7022 0.760591H26.6976C26.3687 0.891261 24.8049 1.5504 22.4274 2.54951L13.9078 6.14468C7.79444 8.72341 1.78498 11.2628 1.78498 11.2628L1.85654 11.2351C1.85654 11.2351 1.44221 11.3715 1.00942 11.6687C0.742045 11.8392 0.511968 12.0622 0.333112 12.3244C0.120755 12.6366 -0.0500533 13.1142 0.0134228 13.6079C0.117293 14.4428 0.657417 14.9436 1.0452 15.2199C1.4376 15.4998 1.81153 15.6304 1.81153 15.6304H1.82076L7.45629 17.5327C7.70904 18.3456 9.1736 23.17 9.52561 24.2813C9.73335 24.9451 9.93532 25.3602 10.1881 25.6771C10.3104 25.839 10.4535 25.9742 10.6255 26.0829C10.7149 26.135 10.8102 26.1762 10.9094 26.2055L10.8517 26.1916C10.869 26.1963 10.8828 26.2101 10.8955 26.2148C10.9417 26.2275 10.9729 26.2321 11.0317 26.2414C11.9239 26.512 12.6406 25.9569 12.6406 25.9569L12.6809 25.9245L16.0083 22.889L21.5849 27.1757L21.7119 27.2301C22.8741 27.7412 24.0513 27.4567 24.6733 26.9549C25.3 26.4495 25.5435 25.8031 25.5435 25.8031L25.5839 25.699L29.8934 3.57868C30.0157 3.03287 30.0469 2.52175 29.9118 2.02567C29.7726 1.5236 29.4511 1.09179 29.0105 0.81494C28.6405 0.58958 28.2115 0.480804 27.779 0.502719ZM27.6625 2.87329C27.6578 2.94614 27.6717 2.93805 27.6394 3.07797V3.09069L23.3703 24.9809C23.3519 25.0121 23.3207 25.0804 23.2353 25.1486C23.1453 25.2203 23.0737 25.2654 22.6986 25.1162L15.8778 19.8767L11.7577 23.6395L12.6232 18.1005L23.7673 7.69307C24.2267 7.26521 24.0732 7.17502 24.0732 7.17502C24.1055 6.65002 23.3796 7.02122 23.3796 7.02122L9.3271 15.7438L9.32248 15.7206L2.58709 13.4484V13.4437L2.56978 13.4403C2.58159 13.4363 2.59315 13.4317 2.6044 13.4264L2.64133 13.4079L2.67711 13.3952C2.67711 13.3952 8.69118 10.8558 14.8045 8.27704C17.8652 6.98537 20.949 5.68445 23.3207 4.68071C24.7273 4.08749 26.1353 3.49774 27.5447 2.91145C27.6394 2.87445 27.5944 2.87329 27.6625 2.87329Z" fill="#F8F7F5"/>
</svg>
