<svg width="10" height="18" viewBox="0 0 10 18" fill="none" xmlns="http://www.w3.org/2000/svg">
<path d="M10.0003 16.9948C10.0011 16.8632 9.97586 16.7328 9.92612 16.6111C9.87638 16.4893 9.80309 16.3785 9.71046 16.2851L2.41447 8.99915L9.71046 1.71315C9.89866 1.52495 10.0044 1.2697 10.0044 1.00354C10.0044 0.737385 9.89866 0.482131 9.71046 0.29393C9.52226 0.10573 9.26701 0 9.00085 0C8.7347 0 8.47945 0.10573 8.29125 0.29393L0.295636 8.28954C0.201959 8.38245 0.127606 8.49299 0.0768649 8.61478C0.0261241 8.73657 0 8.86721 0 8.99915C0 9.13109 0.0261241 9.26172 0.0768649 9.38351C0.127606 9.50531 0.201959 9.61585 0.295636 9.70876L8.29125 17.7044C8.38416 17.798 8.4947 17.8724 8.61649 17.9231C8.73828 17.9739 8.86892 18 9.00085 18C9.13279 18 9.26343 17.9739 9.38522 17.9231C9.50701 17.8724 9.61755 17.798 9.71046 17.7044C9.80309 17.611 9.87638 17.5002 9.92612 17.3785C9.97586 17.2567 10.0011 17.1263 10.0003 16.9948Z" fill="#F8F7F5"/>
</svg>
