<svg width="150" height="50" viewBox="0 0 150 50" fill="none" xmlns="http://www.w3.org/2000/svg">
<path d="M147.045 32.6215V2.22801H150V32.6215H147.045Z" fill="#F8F7F5"/>
<path d="M141.417 2.22855V32.6221H138.461V4.74687H138.201L127.683 24.8935H126.336L114.384 7.13495H114.123L115.079 32.6221H112.124L113.125 2.11916H114.434L127.77 21.9409H128.031L138.288 2.22855H141.417Z" fill="#F8F7F5"/>
<path d="M82.8953 2.22801H85.8506V20.5509C85.8506 24.0534 86.7058 26.7889 88.4149 28.7573C90.1536 30.6966 92.5874 31.6663 95.7168 31.6663C97.6869 31.6663 99.3967 31.2901 100.845 30.5374C102.323 29.7559 103.453 28.6849 104.235 27.3244C105.047 25.9639 105.423 24.4008 105.365 22.6351L104.626 2.22801H107.582L106.843 22.6351C106.727 26.1087 105.684 28.7428 103.714 30.5374C101.772 32.3321 98.9912 33.2294 95.3693 33.2294C91.4572 33.2294 88.4004 32.1005 86.1988 29.8427C83.9964 27.5559 82.8953 24.4298 82.8953 20.4641V2.22801Z" fill="#F8F7F5"/>
<path d="M63.859 32.6215V19.7694L53.0804 2.22801H56.3836L66.0756 18.1195H66.3363L74.0723 2.22801H77.3757L66.9883 19.1616V32.6215H63.859Z" fill="#F8F7F5"/>
<path d="M120.019 42.2167H120.746V43.0869C120.802 42.966 120.879 42.8452 120.976 42.7243C121.081 42.5953 121.206 42.4786 121.351 42.3738C121.496 42.261 121.661 42.1724 121.847 42.1079C122.04 42.0354 122.262 41.9991 122.512 41.9991C122.955 41.9991 123.302 42.0918 123.552 42.2771C123.802 42.4624 123.984 42.676 124.097 42.9176C124.209 43.1594 124.278 43.3971 124.303 43.6307C124.327 43.8564 124.338 44.0134 124.338 44.102V47.462H123.612V44.1987C123.612 44.0457 123.601 43.8765 123.576 43.6911C123.561 43.4978 123.512 43.3205 123.431 43.1594C123.359 42.9902 123.241 42.8532 123.08 42.7485C122.919 42.6357 122.701 42.5793 122.427 42.5793C122.185 42.5793 121.959 42.6357 121.75 42.7485C121.548 42.8532 121.371 43.0022 121.217 43.1956C121.072 43.389 120.956 43.6187 120.866 43.8845C120.786 44.1423 120.746 44.4243 120.746 44.7306V47.462H120.019V42.2167Z" fill="#F8F7F5"/>
<path d="M116.136 47.6795C115.717 47.6795 115.33 47.607 114.975 47.462C114.628 47.325 114.33 47.1316 114.08 46.8818C113.83 46.624 113.632 46.3219 113.487 45.9754C113.35 45.6289 113.281 45.2502 113.281 44.8393C113.281 44.4284 113.35 44.0497 113.487 43.7032C113.632 43.3568 113.83 43.0586 114.08 42.8089C114.33 42.551 114.628 42.3537 114.975 42.2167C115.33 42.0717 115.717 41.9991 116.136 41.9991C116.556 41.9991 116.939 42.0717 117.286 42.2167C117.641 42.3537 117.944 42.551 118.193 42.8089C118.443 43.0586 118.637 43.3568 118.774 43.7032C118.919 44.0497 118.992 44.4284 118.992 44.8393C118.992 45.2502 118.919 45.6289 118.774 45.9754C118.637 46.3219 118.443 46.624 118.193 46.8818C117.944 47.1316 117.641 47.325 117.286 47.462C116.939 47.607 116.556 47.6795 116.136 47.6795ZM116.136 47.0994C116.419 47.0994 116.685 47.047 116.935 46.9422C117.185 46.8295 117.403 46.6764 117.589 46.483C117.782 46.2816 117.935 46.0439 118.048 45.7699C118.161 45.4879 118.217 45.1777 118.217 44.8393C118.217 44.5009 118.161 44.1947 118.048 43.9208C117.935 43.6388 117.782 43.4011 117.589 43.2077C117.403 43.0063 117.185 42.8532 116.935 42.7485C116.685 42.6357 116.419 42.5793 116.136 42.5793C115.855 42.5793 115.588 42.6357 115.339 42.7485C115.088 42.8532 114.867 43.0063 114.673 43.2077C114.487 43.4011 114.338 43.6388 114.225 43.9208C114.112 44.1947 114.056 44.5009 114.056 44.8393C114.056 45.1777 114.112 45.4879 114.225 45.7699C114.338 46.0439 114.487 46.2816 114.673 46.483C114.867 46.6764 115.088 46.8295 115.339 46.9422C115.588 47.047 115.855 47.0994 116.136 47.0994Z" fill="#F8F7F5"/>
<path d="M111.104 38.5789H111.83V47.462H111.104V38.5789Z" fill="#F8F7F5"/>
<path d="M109.071 42.2167H109.749V47.462H109.071V46.5676C108.862 46.9463 108.579 47.2283 108.224 47.4136C107.869 47.5909 107.506 47.6795 107.135 47.6795C106.716 47.6795 106.337 47.607 105.998 47.462C105.667 47.3089 105.381 47.1074 105.139 46.8577C104.905 46.5998 104.724 46.2977 104.595 45.9512C104.466 45.6047 104.402 45.2341 104.402 44.8393C104.402 44.4284 104.466 44.0497 104.595 43.7032C104.732 43.3568 104.922 43.0586 105.164 42.8089C105.405 42.551 105.692 42.3537 106.022 42.2167C106.361 42.0717 106.736 41.9991 107.148 41.9991C107.293 41.9991 107.45 42.0153 107.619 42.0475C107.797 42.0717 107.97 42.1281 108.14 42.2167C108.309 42.2973 108.474 42.4141 108.636 42.5672C108.797 42.7122 108.942 42.9056 109.071 43.1473V42.2167ZM107.135 47.0994C107.409 47.0994 107.664 47.047 107.898 46.9422C108.14 46.8375 108.345 46.6885 108.515 46.4951C108.692 46.2936 108.829 46.056 108.926 45.782C109.022 45.5 109.071 45.1858 109.071 44.8393C109.071 44.5332 109.027 44.2431 108.938 43.9691C108.849 43.6952 108.72 43.4575 108.551 43.2561C108.381 43.0466 108.18 42.8814 107.946 42.7606C107.712 42.6397 107.45 42.5793 107.159 42.5793C106.869 42.5793 106.603 42.6357 106.361 42.7485C106.119 42.8613 105.91 43.0184 105.732 43.2198C105.563 43.4212 105.425 43.663 105.32 43.945C105.224 44.2189 105.175 44.517 105.175 44.8393C105.175 45.1455 105.22 45.4355 105.309 45.7095C105.397 45.9834 105.526 46.2252 105.696 46.4346C105.865 46.6361 106.071 46.7972 106.312 46.9181C106.555 47.0389 106.829 47.0994 107.135 47.0994Z" fill="#F8F7F5"/>
<path d="M100.206 46.0721C100.246 46.201 100.302 46.3299 100.375 46.4589C100.456 46.5797 100.548 46.6885 100.653 46.7851C100.766 46.8818 100.895 46.9584 101.04 47.0148C101.185 47.0711 101.347 47.0994 101.524 47.0994C101.725 47.0994 101.895 47.0711 102.032 47.0148C102.169 46.9503 102.282 46.8698 102.371 46.7731C102.46 46.6764 102.524 46.5676 102.565 46.4467C102.605 46.3178 102.625 46.1889 102.625 46.06C102.625 45.8988 102.592 45.7619 102.528 45.649C102.464 45.5282 102.375 45.4275 102.262 45.3469C102.157 45.2583 102.028 45.1858 101.875 45.1294C101.721 45.0649 101.556 45.0045 101.379 44.9481C101.218 44.8998 101.048 44.8433 100.871 44.7789C100.693 44.7144 100.528 44.6299 100.375 44.5251C100.222 44.4123 100.096 44.2753 99.9998 44.1142C99.9031 43.945 99.8547 43.7314 99.8547 43.4736C99.8547 43.248 99.8948 43.0466 99.9756 42.8693C100.064 42.684 100.185 42.5269 100.338 42.398C100.492 42.269 100.669 42.1724 100.871 42.1079C101.073 42.0354 101.294 41.9991 101.536 41.9991C101.657 41.9991 101.786 42.0112 101.923 42.0354C102.069 42.0596 102.214 42.1119 102.359 42.1925C102.504 42.265 102.645 42.3738 102.782 42.5188C102.927 42.6558 103.057 42.8411 103.169 43.0748L102.625 43.3648C102.52 43.1151 102.363 42.9217 102.153 42.7847C101.951 42.6477 101.725 42.5793 101.475 42.5793C101.193 42.5793 100.972 42.6598 100.81 42.8209C100.657 42.9821 100.58 43.1795 100.58 43.4132C100.58 43.5824 100.613 43.7194 100.677 43.8241C100.75 43.9208 100.843 44.0054 100.955 44.0779C101.076 44.1423 101.214 44.1987 101.367 44.2471C101.528 44.2954 101.697 44.3478 101.875 44.4043C102.093 44.4767 102.291 44.5573 102.467 44.6459C102.653 44.7346 102.811 44.8433 102.939 44.9722C103.077 45.1011 103.182 45.2543 103.254 45.4315C103.334 45.6007 103.375 45.8021 103.375 46.0358C103.375 46.1969 103.347 46.3742 103.29 46.5676C103.234 46.7529 103.133 46.9301 102.988 47.0994C102.842 47.2605 102.645 47.3975 102.395 47.5103C102.145 47.6231 101.83 47.6795 101.451 47.6795C101.33 47.6795 101.189 47.6674 101.028 47.6433C100.867 47.619 100.702 47.5627 100.532 47.474C100.362 47.3854 100.197 47.2565 100.036 47.0873C99.8747 46.91 99.7338 46.6764 99.6129 46.3863L100.206 46.0721Z" fill="#F8F7F5"/>
<path d="M94.8353 42.2167H95.513V47.462H94.8353V46.5676C94.6253 46.9463 94.3434 47.2283 93.9883 47.4136C93.6333 47.5909 93.2706 47.6795 92.8996 47.6795C92.4803 47.6795 92.1011 47.607 91.7626 47.462C91.4317 47.3089 91.1457 47.1074 90.9032 46.8577C90.6697 46.5998 90.488 46.2977 90.3588 45.9512C90.2296 45.6047 90.1654 45.2341 90.1654 44.8393C90.1654 44.4284 90.2296 44.0497 90.3588 43.7032C90.4963 43.3568 90.6856 43.0586 90.9274 42.8089C91.1698 42.551 91.4558 42.3537 91.7867 42.2167C92.1252 42.0717 92.5003 41.9991 92.9114 41.9991C93.0571 41.9991 93.214 42.0153 93.3832 42.0475C93.5607 42.0717 93.7341 42.1281 93.9034 42.2167C94.0733 42.2973 94.2384 42.4141 94.3994 42.5672C94.561 42.7122 94.7061 42.9056 94.8353 43.1473V42.2167ZM92.8996 47.0994C93.1739 47.0994 93.4281 47.047 93.6616 46.9422C93.9034 46.8375 94.1092 46.6885 94.2785 46.4951C94.456 46.2936 94.5935 46.056 94.6902 45.782C94.7869 45.5 94.8353 45.1858 94.8353 44.8393C94.8353 44.5332 94.7911 44.2431 94.702 43.9691C94.6135 43.6952 94.4843 43.4575 94.3151 43.2561C94.1458 43.0466 93.9441 42.8814 93.7099 42.7606C93.4765 42.6397 93.2139 42.5793 92.9238 42.5793C92.6337 42.5793 92.367 42.6357 92.1252 42.7485C91.8834 42.8613 91.6734 43.0184 91.4959 43.2198C91.3266 43.4212 91.1899 43.663 91.0849 43.945C90.9882 44.2189 90.9398 44.517 90.9398 44.8393C90.9398 45.1455 90.984 45.4355 91.0724 45.7095C91.1616 45.9834 91.2907 46.2252 91.46 46.4346C91.6292 46.6361 91.8351 46.7972 92.0769 46.9181C92.3186 47.0389 92.5929 47.0994 92.8996 47.0994Z" fill="#F8F7F5"/>
<path d="M84.3888 42.2167V43.1473C84.469 42.9942 84.5664 42.8492 84.679 42.7122C84.7999 42.5753 84.9408 42.4543 85.1024 42.3497C85.2634 42.2449 85.4451 42.1603 85.6468 42.0958C85.8568 42.0314 86.0903 41.9991 86.3487 41.9991C86.7514 41.9991 87.1189 42.0676 87.4491 42.2046C87.78 42.3416 88.0626 42.535 88.2961 42.7847C88.5378 43.0345 88.7237 43.3366 88.8529 43.6911C88.9896 44.0376 89.058 44.4203 89.058 44.8393C89.058 45.2421 88.9938 45.6168 88.8646 45.9633C88.7437 46.3017 88.5662 46.5998 88.3327 46.8577C88.1068 47.1155 87.8242 47.3169 87.4857 47.462C87.1548 47.607 86.7839 47.6795 86.3728 47.6795C86.0986 47.6795 85.8568 47.6433 85.6468 47.5707C85.4368 47.4982 85.2516 47.4136 85.09 47.3169C84.9373 47.2122 84.804 47.0994 84.6914 46.9785C84.5864 46.8577 84.5014 46.7488 84.4372 46.6522V50H83.7111V42.2167H84.3888ZM86.3728 47.0994C86.6713 47.0994 86.9372 47.043 87.1714 46.9301C87.4132 46.8093 87.6149 46.6482 87.7759 46.4467C87.9451 46.2453 88.0702 46.0076 88.151 45.7337C88.2394 45.4517 88.2843 45.1535 88.2843 44.8393C88.2843 44.5734 88.2477 44.3076 88.1752 44.0417C88.1026 43.7757 87.9859 43.5341 87.8242 43.3165C87.6633 43.0989 87.4533 42.9217 87.1956 42.7847C86.9455 42.6477 86.6388 42.5793 86.2761 42.5793C85.9936 42.5793 85.7352 42.6397 85.5017 42.7606C85.2675 42.8814 85.0658 43.0466 84.8966 43.2561C84.7356 43.4575 84.6106 43.6952 84.5215 43.9691C84.433 44.2431 84.3888 44.5332 84.3888 44.8393C84.3888 45.2099 84.4448 45.5363 84.5581 45.8183C84.6707 46.1003 84.8165 46.3379 84.9933 46.5313C85.1791 46.7166 85.3884 46.8577 85.6226 46.9544C85.8644 47.0511 86.1145 47.0994 86.3728 47.0994Z" fill="#F8F7F5"/>
<path d="M79.176 46.0721C79.2167 46.201 79.2727 46.3299 79.3452 46.4589C79.426 46.5797 79.5186 46.6885 79.6236 46.7851C79.7369 46.8818 79.8661 46.9584 80.0112 47.0148C80.1562 47.0711 80.3172 47.0994 80.4947 47.0994C80.6964 47.0994 80.8657 47.0711 81.0032 47.0148C81.1399 46.9503 81.2532 46.8698 81.3417 46.7731C81.4301 46.6764 81.495 46.5676 81.5351 46.4467C81.5759 46.3178 81.5959 46.1889 81.5959 46.06C81.5959 45.8988 81.5634 45.7619 81.4992 45.649C81.4342 45.5282 81.3458 45.4275 81.2325 45.3469C81.1282 45.2583 80.999 45.1858 80.8457 45.1294C80.6923 45.0649 80.5272 45.0045 80.3497 44.9481C80.188 44.8998 80.0188 44.8433 79.8412 44.7789C79.6644 44.7144 79.4986 44.6299 79.3452 44.5251C79.1925 44.4123 79.0675 44.2753 78.9708 44.1142C78.8734 43.945 78.825 43.7314 78.825 43.4736C78.825 43.248 78.8658 43.0466 78.9466 42.8693C79.035 42.684 79.1559 42.5269 79.3093 42.398C79.4627 42.269 79.6402 42.1724 79.8412 42.1079C80.0429 42.0354 80.2647 41.9991 80.5072 41.9991C80.628 41.9991 80.7572 42.0112 80.894 42.0354C81.0391 42.0596 81.1842 42.1119 81.3292 42.1925C81.475 42.265 81.6159 42.3738 81.7527 42.5188C81.8985 42.6558 82.0269 42.8411 82.1402 43.0748L81.5959 43.3648C81.4909 43.1151 81.3334 42.9217 81.1241 42.7847C80.9223 42.6477 80.6964 42.5793 80.4464 42.5793C80.1638 42.5793 79.9421 42.6598 79.7811 42.8209C79.6278 42.9821 79.5511 43.1795 79.5511 43.4132C79.5511 43.5824 79.5836 43.7194 79.6478 43.8241C79.7203 43.9208 79.8136 44.0054 79.9262 44.0779C80.0471 44.1423 80.1846 44.1987 80.3372 44.2471C80.4989 44.2954 80.6681 44.3478 80.8457 44.4043C81.0633 44.4767 81.2608 44.5573 81.4384 44.6459C81.6242 44.7346 81.781 44.8433 81.9102 44.9722C82.0477 45.1011 82.152 45.2543 82.2245 45.4315C82.3053 45.6007 82.3461 45.8021 82.3461 46.0358C82.3461 46.1969 82.3178 46.3742 82.2611 46.5676C82.2045 46.7529 82.1036 46.9301 81.9586 47.0994C81.8135 47.2605 81.6159 47.3975 81.3658 47.5103C81.1158 47.6231 80.8014 47.6795 80.4222 47.6795C80.3013 47.6795 80.1604 47.6674 79.9987 47.6433C79.8378 47.619 79.672 47.5627 79.5027 47.474C79.3335 47.3854 79.1684 47.2565 79.0067 47.0873C78.8458 46.91 78.7041 46.6764 78.5833 46.3863L79.176 46.0721Z" fill="#F8F7F5"/>
<path d="M47.0837 25.1952L46.9229 25.4643C46.1761 26.6949 45.056 28.2811 44.2096 29.4635C43.3114 30.718 42.1819 31.6506 41.0471 32.5206C39.9697 33.3377 38.9013 34.0923 37.9556 35.0152L37.7715 35.2027C36.708 36.2891 35.6064 38.1395 35.1906 39.9711C34.7792 41.7831 35.0581 43.4558 36.5518 44.4266L38.5232 45.2294L39.2463 45.3737L38.6742 45.8879L38.4994 46.0467L38.3198 45.9746C37.9605 45.9071 37.6439 45.9359 37.2609 45.96C36.9205 45.9842 36.5424 45.9984 36.1076 45.9024L35.9136 45.8495C34.7792 45.513 34.0938 44.3499 33.7345 43.1963C33.3706 42.0283 33.2807 40.7209 33.4414 39.8797L33.5171 39.519C33.9 37.76 34.5381 36.6544 35.4268 35.722C35.8948 35.2315 36.4291 34.7941 37.0103 34.3423C37.6013 33.8857 38.2345 33.4146 38.9436 32.8378L39.1376 32.6744C39.5818 32.285 39.9271 31.8909 40.2626 31.4727C40.5935 31.0641 40.929 30.6171 41.3264 30.1605L41.4962 29.9682C42.0638 29.3433 43.042 28.4349 43.9212 27.5649C44.3658 27.1226 44.7911 26.6804 45.1409 26.2767C45.5002 25.8681 45.7651 25.5124 45.9021 25.2384L46.0297 24.9741C46.6395 23.6041 46.9418 21.7007 46.9988 19.7396C47.0508 17.7833 46.8618 15.8173 46.5165 14.3465L46.4455 14.0581C46.2942 13.4765 46.1383 13.2361 45.9542 13.0294C45.8028 12.8564 45.524 12.6113 45.2262 12.2363L45.0938 12.0681C44.8477 11.7317 44.6541 11.3567 44.4839 11.0106C44.3088 10.6549 44.1529 10.3377 43.9639 10.0589C43.7559 9.75128 43.3163 9.3187 42.8057 8.85725C42.56 8.63131 42.3 8.40541 42.0589 8.19393C41.8226 7.98242 41.5958 7.78537 41.4113 7.6171C40.0214 6.34333 38.627 5.13207 37.1096 4.09864C35.597 3.06038 33.9567 2.19998 32.08 1.62799L31.7161 1.52224C30.9314 1.30113 30.4729 1.29152 30.038 1.32997C29.6078 1.36843 29.0878 1.47417 28.3315 1.47417C27.802 1.47417 27.2962 1.37804 26.8141 1.30113C26.3886 1.22903 25.9679 1.16655 25.5141 1.16655H25.3203C16.2207 1.50782 9.03554 6.99706 6.88474 14.7695L6.78546 15.1444C6.62948 15.7644 6.62948 16.3797 6.6673 17.0286C6.70039 17.6631 6.78074 18.3697 6.74292 19.0907C6.70039 19.9511 6.60582 20.9124 6.51129 21.8209L6.41676 22.7005C6.37894 23.0658 6.27965 23.4407 6.20878 23.758C6.13312 24.0944 6.08115 24.3876 6.10006 24.6712L6.10949 24.801C6.14731 25.1086 6.24659 25.4451 6.36947 25.8296C6.50185 26.2478 6.66258 26.7189 6.72873 27.1755L6.75711 27.387C6.81383 27.8773 6.82327 28.3676 6.84218 28.8242C6.86584 29.3529 6.89893 29.8576 7.02181 30.3576L7.10219 30.6652C7.9956 33.8183 10.5908 36.5294 13.1859 38.8509L15.9749 40.8218L15.6676 41.5137C14.0794 41.1196 12.4627 40.1296 11.1958 39.2067L10.95 39.019C8.31233 37.0436 6.1284 33.9001 5.52335 30.7709L5.46663 30.4681C5.32481 29.5933 5.29171 28.7136 5.26334 27.8581C5.24443 27.0986 5.22552 26.368 5.15937 25.6374L5.12627 25.3298C5.04589 24.6568 4.89464 24.032 4.76701 23.3398C4.63938 22.662 4.54012 21.9458 4.59684 21.1912V21.1576C5.0837 18.1005 5.59426 14.3369 6.60111 11.3327L6.70983 11.0347C7.85853 7.93437 10.5624 5.13687 13.8241 3.14209C17.1992 1.07522 21.2267 -0.164906 24.8902 0.0177475L25.065 0.0273608C25.4763 0.0562011 25.9065 0.118688 26.3178 0.176368C26.7999 0.243662 27.2584 0.301342 27.6839 0.310955H28.114C30.2176 0.301342 31.6168 -0.0543528 34.0087 0.762784L34.4294 0.916597C38.7926 2.53164 42.1155 5.62713 44.5783 9.13124L45.0794 9.83781C46.2753 11.4913 47.566 13.2121 48.1049 15.255L48.1758 15.5481C48.8706 18.4946 48.6154 22.4506 47.0837 25.1952Z" fill="#F8F7F5"/>
<path d="M13.7863 44.5514L13.5972 44.8737C13.5216 45.0034 13.3987 45.0993 13.238 45.1189C13.1056 45.1381 12.9969 45.0947 12.9449 45.0705C12.8834 45.0418 12.8314 45.008 12.8031 44.9938C12.7794 44.9792 12.77 44.9746 12.77 44.9746C11.6213 44.5371 10.2599 43.7102 9.29083 43.0517C7.47564 41.8214 5.84008 40.389 4.51178 38.7596C3.17874 37.1299 2.14351 35.313 1.51954 33.299L1.40609 32.9049C0.422858 29.3816 -0.172755 26.5697 0.0446901 22.8301L0.0730531 22.4456C0.153413 21.5419 0.333042 20.6671 0.536306 19.8115C0.772658 18.8165 1.03737 17.8792 1.24537 16.9083L1.30209 16.6391L1.56681 16.6054C1.69917 16.591 1.86934 16.615 1.99225 16.7592C2.09624 16.8794 2.11515 17.0188 2.11987 17.0861C2.1246 17.1582 2.11515 17.2303 2.11042 17.2736C2.1057 17.2976 2.10097 17.3216 2.10097 17.3361C2.10097 17.3409 2.10097 17.3505 2.09624 17.3505V17.3601C2.01588 18.2782 1.99697 19.3116 1.87407 20.2777C1.84098 20.5613 1.8268 20.8497 1.8268 21.1525C1.8268 21.7053 1.87407 22.2869 1.92607 22.8878C1.99225 23.7337 2.0726 24.623 2.00643 25.4498L1.98752 25.6132C1.94025 26.0554 1.72753 26.6226 1.57154 27.084C1.49118 27.3291 1.42027 27.5599 1.37772 27.7618C1.34464 27.9156 1.33518 28.0405 1.33518 28.1319L1.34464 28.2136L1.35409 28.252C1.373 28.2953 1.40609 28.3434 1.48645 28.4395C1.58099 28.5452 1.75116 28.7327 1.8268 29.0067L1.85043 29.1124C1.8977 29.3624 1.8977 29.6075 1.88825 29.8142C1.8788 30.069 1.86934 30.266 1.88825 30.4535L1.94025 30.7804C2.06315 31.4965 2.25696 31.9292 2.50277 32.3233C2.65404 32.5588 2.82421 32.7799 3.0322 33.0539C3.24019 33.3183 3.47655 33.6259 3.73181 34.0057C4.04851 34.4671 4.32268 34.9622 4.58741 35.4332C4.84739 35.8996 5.09793 36.3513 5.38628 36.7696L5.41466 36.808C6.41207 38.2404 7.77347 39.6583 9.09705 40.9082L9.60285 41.384C10.7988 42.4703 12.0704 43.475 13.4649 44.3545L13.7816 44.5514H13.7863Z" fill="#F8F7F5"/>
<path d="M50.3503 29.8143C50.2887 30.867 50.265 31.886 49.9295 32.9867C49.7638 33.5347 49.3151 34.6066 48.8185 35.6207C48.5679 36.1303 48.3034 36.6349 48.0482 37.0581C47.7977 37.476 47.5377 37.8463 47.3011 38.0674C47.112 38.2404 46.8806 38.3559 46.7104 38.4473C46.5214 38.5482 46.3889 38.6203 46.2991 38.7067C46.1715 38.8318 46.0436 39.067 45.8878 39.3893C45.7459 39.6825 45.5806 40.0524 45.4055 40.3168C45.2402 40.567 45.0462 40.7784 44.8715 40.9611C44.7296 41.105 44.6069 41.2301 44.4979 41.3552L44.3892 41.4849C44.3892 41.4849 44.3609 41.5379 44.3088 41.6821C44.2665 41.8023 44.205 41.9849 44.0631 42.158C43.6141 42.7347 42.9665 43.1096 42.314 43.3978C41.6996 43.6672 41.0094 43.8882 40.4611 44.0901L39.875 44.6622V43.4892L40.0546 43.422C40.5275 42.975 41.1275 42.5759 41.6619 42.1964C42.2336 41.7877 42.7397 41.3936 43.0612 40.9465L43.1318 40.836C43.2027 40.7109 43.2691 40.5574 43.354 40.3747C43.4488 40.1583 43.5763 39.8748 43.7559 39.6825L43.808 39.6345C43.9307 39.5237 44.0869 39.4469 44.1861 39.3893C44.328 39.3172 44.4224 39.2642 44.4885 39.2017L44.6635 39.0432C45.4813 38.2742 45.3915 37.9664 46.0248 36.8655L46.2093 36.5532C46.6535 35.8225 47.1735 35.1016 47.6226 34.4095C48.1475 33.5923 48.6011 32.7752 48.8517 31.8716V31.8571L48.8611 31.8475L49.6129 29.6653L50.3503 29.8143Z" fill="#F8F7F5"/>
<path d="M51.9338 25.3492L51.9009 25.4645C51.7967 25.7673 51.5651 25.9356 51.4092 26.0365C51.3526 26.075 51.2295 26.1423 51.2058 26.1567C51.1824 26.1759 51.168 26.1855 51.1586 26.1903C51.1541 26.2047 51.1303 26.272 51.1114 26.4355C51.0971 26.6085 51.0971 26.8152 51.0971 27.0507C51.0971 27.267 51.0926 27.517 51.0545 27.7285C51.0262 27.9159 50.9458 28.2188 50.6718 28.3678C50.5771 28.4206 50.4778 28.4399 50.3974 28.4495C50.3171 28.4591 50.2321 28.4591 50.1469 28.4543C49.9816 28.4447 49.7925 28.4206 49.6129 28.3918C49.4332 28.3629 49.2491 28.3245 49.0928 28.2957C49.0125 28.2812 48.9415 28.2668 48.8849 28.2572L48.7385 28.2332L48.0105 28.1418L48.5019 27.5939L48.606 27.4833C48.7147 27.3728 48.8377 27.2478 48.9698 27.1228C49.1449 26.9546 49.334 26.7719 49.5087 26.5893C49.6884 26.4066 49.8446 26.2288 49.9578 26.0654C50.0763 25.8923 50.1235 25.7721 50.1329 25.7048C50.1423 25.6616 50.1329 25.6135 50.1046 25.5126C50.0808 25.4357 50.0148 25.2578 50.0242 25.0704C50.0714 23.9793 50.2084 22.9602 50.1469 21.9316L50.1329 21.7297C50.0902 21.2346 49.9484 20.7492 49.7876 20.2252C49.6366 19.7157 49.457 19.163 49.3812 18.5958L50.0997 18.3795L51.2107 20.8261V20.8405L51.2247 20.8549C51.3949 21.3452 51.6409 22.2296 51.8111 23.1093C51.896 23.5515 51.9621 23.9985 51.9858 24.3926C52.0096 24.7339 52.0047 25.0704 51.9338 25.3492Z" fill="#F8F7F5"/>
<path d="M29.0925 49.3772L27.9628 49.5744H27.9344L27.9014 49.579C27.1308 49.584 26.3036 49.5986 25.4905 49.4206L25.5804 48.6562H25.6655C26.0862 48.6466 26.3178 48.4881 26.488 48.2717C26.7007 48.0073 26.8283 47.6469 27.0032 47.1999L27.405 46.1761L27.717 47.2336C27.9203 47.9063 28.3741 48.5602 29.0547 48.6132L29.0925 49.3772Z" fill="#F8F7F5"/>
<path d="M37.0341 27.4305L36.7646 27.94C36.3627 28.6946 35.8193 29.3435 35.2755 29.954C34.7935 30.4971 34.316 31.0018 33.8953 31.5402L33.7157 31.7757C31.286 35.0635 29.7213 39.9373 30.2602 43.8982L30.3169 44.2777L30.3406 44.3836C30.5769 45.4796 31.4656 46.0563 32.5907 46.8303L33.087 47.1715L32.5718 47.4838L32.4488 47.556L32.307 47.5322C31.3852 47.3541 30.454 46.8303 29.7544 46.1381C29.0973 45.4941 28.601 44.6626 28.5443 43.7877L28.5348 43.6096C28.5348 42.7831 28.5774 41.6004 28.7003 40.4327C28.8232 39.2742 29.0217 38.0869 29.3526 37.2795C29.5039 36.9092 29.7686 36.5727 29.9766 36.2987C30.2082 36.0009 30.3689 35.7749 30.4304 35.5731L30.4682 35.4336C30.5013 35.2894 30.5249 35.1308 30.5533 34.9433C30.5864 34.7126 30.6242 34.4338 30.7046 34.1694L30.766 33.9916C31.0733 33.1168 31.6216 32.3909 32.1983 31.7421C32.5103 31.396 32.8365 31.0595 33.1437 30.7374C33.4557 30.4106 33.7488 30.0934 34.0088 29.7713L34.075 29.6848C34.2215 29.4829 34.3208 29.2714 34.42 29.0359C34.5335 28.7763 34.6564 28.4639 34.8407 28.1611L34.9258 28.0361C35.1196 27.7573 35.3653 27.5122 35.5736 27.2959C35.8238 27.0363 36.0321 26.8104 36.1691 26.5652L36.2117 26.4835C36.3016 26.2913 36.3533 26.0942 36.4054 25.8683C36.462 25.6231 36.5235 25.3155 36.651 25.0127L36.708 24.8829C36.8593 24.5897 37.0624 24.3446 37.1997 24.1523C37.3696 23.9216 37.4786 23.7293 37.5069 23.489L37.5398 23.1765C37.8519 20.0666 37.2514 16.8413 35.4317 14.188L35.2472 13.9237C34.7982 13.3036 34.1837 12.7749 33.4983 12.2605C33.1532 12.0058 32.8034 11.7607 32.4441 11.5107C32.1132 11.28 31.7823 11.0445 31.4656 10.8041C28.5017 10.2418 26.0248 9.57363 23.1034 10.0639L22.8151 10.1168C22.8151 10.1168 22.8009 10.1168 22.782 10.1264C22.7536 10.1312 22.7205 10.1456 22.6733 10.1601C22.5882 10.1889 22.4747 10.2273 22.3424 10.2754C22.0824 10.3667 21.7467 10.4917 21.4206 10.6167C21.0897 10.7416 20.7588 10.8714 20.5035 10.9724C20.3759 11.0252 20.2624 11.0733 20.1821 11.107C20.097 11.1454 20.0592 11.1598 20.0592 11.1646C19.837 11.2992 19.3454 11.7318 18.8349 12.2173C18.3952 12.6403 17.9793 13.0681 17.7713 13.3132L17.6909 13.4094C17.4356 13.741 17.2371 14.0871 17.0433 14.4572C16.9015 14.7264 16.755 15.0196 16.5895 15.3128L16.424 15.606C16.2964 15.8127 16.0932 16.0242 15.9655 16.1684C15.8143 16.3462 15.7386 16.4664 15.715 16.5626C15.6677 16.7596 15.6819 16.9519 15.715 17.1874C15.7481 17.4085 15.8143 17.7065 15.8143 18.0093C15.8096 18.3795 15.8048 18.6679 15.8048 18.9322C15.8048 19.4177 15.8237 19.8215 15.8994 20.4896L15.9135 20.6578C15.9797 21.4702 15.8285 22.1815 15.6488 22.8401C15.4786 23.4697 15.2943 24.0177 15.1998 24.5945L15.1667 24.8493C15.1336 25.1569 15.195 25.354 15.299 25.5607C15.3605 25.676 15.4219 25.7818 15.507 25.926C15.5874 26.0654 15.6772 26.2288 15.7528 26.4162L15.871 26.7287C15.9939 27.0507 16.1168 27.3968 16.2444 27.7573C16.4193 28.2428 16.5942 28.7427 16.7833 29.2378C17.1662 30.2376 17.5822 31.1604 18.0549 31.7757L18.3622 32.1843C18.6316 32.5592 18.797 32.8187 18.9341 33.0976C19.109 33.4388 19.2508 33.833 19.5298 34.4482L19.577 34.5492C19.6952 34.7655 19.8512 34.9289 20.0497 35.1788C20.2624 35.448 20.4894 35.7845 20.5508 36.2891L20.5603 36.3662C20.5697 36.5439 20.5603 36.722 20.5461 36.8563C20.5319 37.0293 20.5319 37.1399 20.5461 37.217C20.5508 37.2216 20.565 37.2458 20.6453 37.3371C20.7115 37.4188 20.8297 37.5535 20.9006 37.7458L20.929 37.8271L20.9952 38.1011C21.6286 40.9277 20.3948 43.4078 19.0051 45.6768C18.9389 45.7823 18.849 45.9362 18.745 46.0805C18.6411 46.2248 18.5087 46.3879 18.3338 46.5034L17.1993 47.2724L17.7855 46.0179C17.9414 45.6814 18.1069 45.3545 18.2676 45.0375C18.4283 44.7201 18.5843 44.4078 18.7261 44.1C19.0145 43.4753 19.2461 42.8598 19.3596 42.1775L19.3879 41.9611C19.4541 41.3939 19.4919 40.4469 19.4636 39.5048C19.4494 38.9714 19.4163 38.4473 19.3596 38.0052C19.2981 37.5485 19.2225 37.217 19.1327 37.0439L19.0949 36.9668C19.0476 36.8947 18.9909 36.8229 18.9152 36.722C18.816 36.5919 18.6978 36.4238 18.6127 36.1932L18.5654 36.0439C18.4709 35.7077 18.4662 35.3951 18.4567 35.1356C18.4472 34.8664 18.4378 34.6501 18.3669 34.4242L18.3338 34.328C18.1873 33.9579 17.9225 33.6647 17.5964 33.3523C17.3269 33.0927 16.9866 32.8043 16.7172 32.4583L16.6037 32.3093C16.3106 31.8766 15.8615 30.997 15.4597 30.1318C15.1147 29.3723 14.7838 28.5792 14.6278 28.0553L14.571 27.8486C13.9424 25.2386 14.3347 23.7485 14.5143 21.374L14.5238 21.1433C14.5427 20.6098 14.486 20.0474 14.434 19.437C14.3725 18.7592 14.3205 18.0238 14.4151 17.2836L14.4292 17.2067C14.4482 17.1201 14.4812 17.024 14.5143 16.9327C14.5663 16.7981 14.6278 16.6347 14.7034 16.452C14.8547 16.0867 15.0532 15.6397 15.2612 15.1926C15.663 14.3082 16.1121 13.3805 16.2775 13.1258L16.391 12.9479C17.6248 11.1214 19.7377 9.87644 22.0493 9.18909C24.4364 8.48252 27.0836 8.34791 29.3006 8.81898L29.5228 8.86703C31.7776 9.4102 34.0371 10.9772 35.7766 12.8903C37.5684 14.861 38.8681 17.2691 39.0195 19.4273L39.0338 19.7205C39.1614 22.5565 38.3009 24.9646 37.0295 27.4305H37.0341Z" fill="#F8F7F5"/>
<path d="M47.0791 29.3625C46.5734 30.5546 46.0768 31.8092 45.5051 33.0108L45.2545 33.5251C45.0605 33.9097 44.7156 34.5586 44.3231 35.169C44.1295 35.4719 43.9167 35.7746 43.7039 36.0294C43.5242 36.2504 43.3306 36.4572 43.1272 36.6015L43.0374 36.6591C42.7917 36.8129 42.4608 36.9043 42.2291 36.9764C42.0966 37.0148 41.9879 37.0485 41.903 37.0819C41.8083 37.1207 41.7706 37.1495 41.766 37.1541C41.6192 37.2937 41.3592 37.6061 41.0852 37.9473C40.9482 38.1203 40.8109 38.2884 40.6882 38.4473L40.3807 38.846C40.1682 39.1153 40.0214 39.3989 39.7995 39.7401C39.6199 40.0237 39.4025 40.3268 39.0998 40.5766L38.7217 40.8552L38.4949 40.6534L38.2772 40.4515L38.4096 40.1871L39.9837 37.0915L40.0025 37.0532C40.2108 36.7362 40.5275 36.5823 40.7497 36.486C40.8773 36.4284 40.9622 36.3996 41.0475 36.3563C41.123 36.3179 41.1562 36.2891 41.1702 36.2746C41.1845 36.26 41.2082 36.2216 41.246 36.1495C41.2788 36.0773 41.312 35.991 41.3592 35.8851C41.4445 35.6832 41.5626 35.4093 41.7566 35.1786L41.9928 34.9047C42.5506 34.275 43.2219 33.6645 43.8031 33.0637C44.4794 32.3619 45.0794 31.6361 45.4292 30.7757L45.4387 30.7517L45.453 30.7325L46.4032 29.0213L47.0791 29.3625Z" fill="#F8F7F5"/>
<path d="M43.5008 22.0662C43.0423 23.5803 42.2008 25.0078 41.5672 26.3633L41.4728 26.5604L41.26 26.5844C41.1656 26.5941 40.986 26.5892 40.8486 26.4402C40.7165 26.296 40.7211 26.123 40.7305 26.0509C40.7399 25.974 40.7637 25.9019 40.778 25.8634C40.7875 25.8394 40.7969 25.8202 40.8014 25.8009C40.8109 25.7865 40.8109 25.7817 40.8158 25.7769L40.8486 25.6856C40.9339 25.4741 41.0475 25.277 41.1418 25.1088C41.2505 24.9069 41.3403 24.7435 41.3924 24.5752L41.4822 24.2532C41.6951 23.4457 41.917 22.2584 42.0732 21.0567C42.2385 19.7685 42.3238 18.514 42.2574 17.7257L42.2434 17.5767C42.2102 17.322 42.1155 17.0384 41.9974 16.7211C41.9124 16.4952 41.8083 16.2452 41.7234 16.0001L41.6475 15.755C41.3735 14.76 41.3358 14.4764 40.9954 13.7266L40.8298 13.3708C40.7354 13.1738 40.6596 12.9479 40.5935 12.7652C40.5414 12.6162 40.4943 12.4864 40.4376 12.3759L40.3807 12.2701C40.2248 12.0057 40.0169 11.8375 39.752 11.6741C39.5063 11.5251 39.1233 11.3328 38.7926 11.0877C37.4737 10.1167 36.0367 9.13135 34.524 8.26134C33.0113 7.39134 31.4277 6.63189 29.8253 6.10314L29.5133 6.00222C27.7832 5.46867 26.4359 5.37735 24.6539 5.59366L24.2899 5.6417C23.8975 5.69938 23.5855 5.80513 23.2688 5.93012C22.9568 6.05026 22.6165 6.19447 22.2336 6.281C21.7703 6.38676 21.2031 6.40115 20.702 6.42521C20.2435 6.44443 19.837 6.46846 19.5108 6.55016L19.3784 6.58864C19.3406 6.60303 19.2602 6.64632 19.1374 6.76167C19.0145 6.87222 18.8868 7.01643 18.7403 7.17503C18.5134 7.43459 18.2298 7.77108 17.9745 7.99219L17.8658 8.08352C17.516 8.34308 17.1047 8.54976 16.736 8.74201C16.3531 8.9343 16.0033 9.11695 15.7055 9.33806C15.4739 9.51589 15.1099 9.85718 14.6892 10.2946C14.2685 10.732 13.791 11.2607 13.3278 11.8087C12.8693 12.347 12.4344 12.895 12.0988 13.366C11.7489 13.8563 11.5315 14.2313 11.4653 14.4331C10.917 16.1635 10.6334 18.0285 10.7279 19.8311L10.7421 20.0377C10.7799 20.5088 10.865 20.9654 10.9311 21.4845C10.9973 22.0181 11.0352 22.5853 10.9359 23.1765L10.9122 23.2967C10.8697 23.5226 10.7326 23.8446 10.6475 24.0753C10.6003 24.2003 10.5577 24.3157 10.5341 24.407C10.5199 24.4647 10.5152 24.4983 10.5104 24.5176C10.5294 24.5416 10.5483 24.5656 10.5955 24.6089C10.6759 24.6906 10.8508 24.854 10.9122 25.104L10.9406 25.2386C10.9926 25.5462 10.9359 25.8106 10.8839 26.0124C10.8508 26.1374 10.8271 26.2095 10.8082 26.3009C10.7988 26.3393 10.7941 26.3729 10.7893 26.397V26.5027C10.813 26.594 10.8744 26.7238 10.9737 26.9065C11.0682 27.0795 11.2195 27.3295 11.2904 27.5602C11.4653 28.1322 11.5646 28.56 11.6875 28.9782C11.8056 29.4012 11.9522 29.8049 12.2169 30.3288L12.3445 30.5692C12.9874 31.766 13.7248 32.6264 14.4387 33.5974C15.1524 34.5683 15.8095 35.6114 16.2302 37.1257L16.3106 37.433L16.3342 37.5293C16.3484 37.5869 16.3626 37.659 16.3626 37.7262C16.3626 37.7937 16.3531 37.9426 16.2397 38.0723C16.1073 38.2216 15.9324 38.2358 15.8142 38.2216L15.6251 38.1974L15.5306 38.029C15.091 37.2266 14.7364 36.438 14.2543 35.7316L14.155 35.5923C13.4602 34.6308 12.718 33.881 11.9806 33.011C11.3046 32.2131 10.6665 31.3431 10.1985 30.2135L10.1039 29.9828C9.7541 29.0599 9.7021 28.4062 9.72576 27.7813C9.73991 27.2285 9.80611 26.7815 9.77776 26.1711L9.75882 25.8971C9.69738 25.1953 9.57447 24.4743 9.45631 23.7197C9.35231 23.0659 9.25777 22.3882 9.22468 21.7056L9.21524 21.4124C9.20105 20.7299 9.21524 19.2975 9.30978 17.9084C9.35703 17.2162 9.42322 16.524 9.52247 15.9376C9.61704 15.3752 9.74467 14.8417 9.94792 14.5197L10.0519 14.3562C10.3072 13.9717 10.6192 13.5776 10.9217 13.193C11.2762 12.746 11.6213 12.3134 11.8955 11.8952L12.0089 11.7125C12.2689 11.2992 12.4533 10.9339 12.6991 10.5253C12.9685 10.0687 13.2758 9.61205 13.7532 9.10732L13.9565 8.90544C14.987 7.89123 16.5705 6.86259 18.2487 6.04547C20.0402 5.17067 21.9878 4.51694 23.5619 4.39196L24.1811 4.34871C30.2271 4.00745 34.6374 5.72823 38.8681 9.38611V9.36688L39.5017 9.94371C40.5697 10.9194 41.1373 11.5155 41.5483 12.2028C41.9502 12.8758 42.1959 13.6304 42.6544 14.8657L43.0137 15.803C43.3589 16.7067 43.6473 17.5046 43.7986 18.317C44.0065 19.4225 43.9544 20.5569 43.5008 22.0662Z" fill="#F8F7F5"/>
<path d="M34.0608 20.0281C33.9946 18.1198 33.4557 16.1635 32.1416 15.0483L32.0093 14.9426C31.7493 14.7359 31.2151 14.3802 30.6809 14.0486C30.1562 13.7265 29.5843 13.3997 29.2628 13.2843C28.5254 13.0151 27.6036 12.8132 26.6818 12.7363C25.8215 12.6642 24.9328 12.7027 24.1812 12.9142L24.03 12.9622C23.4013 13.1641 22.3707 13.6929 21.4442 14.2985C20.981 14.6013 20.5319 14.9282 20.1679 15.255C19.8134 15.5675 19.4967 15.9136 19.3502 16.25L19.3123 16.3413C19.1516 16.7836 19.2225 17.2017 19.3076 17.5382C19.4021 17.9275 19.4872 18.1775 19.4683 18.4515C19.4541 18.6822 19.336 18.937 19.1705 19.2878C19.0334 19.5811 18.8538 19.956 18.8255 20.3453V20.4222C18.8113 20.7106 18.8727 21.0183 18.9294 21.2826C18.9862 21.5662 19.0381 21.7969 19.0476 22.0036L19.0618 22.2488C19.0807 22.8304 19.0712 23.4456 19.0712 24.0753C19.0712 24.7867 19.0807 25.5173 19.1563 26.1999L19.1705 26.3056C19.2462 26.8392 19.4589 27.2477 19.6905 27.613C19.9505 28.0216 20.1868 28.3196 20.3995 28.7378C20.617 29.1656 20.8108 29.6222 21.0046 30.0981C21.2032 30.5643 21.4017 31.0498 21.6239 31.5113C21.8271 31.939 22.0824 32.4149 22.3376 32.9004C22.5929 33.3859 22.8529 33.8906 23.0893 34.4001C23.5667 35.4239 23.9118 36.4046 23.9118 37.212C23.9118 37.2984 23.8929 37.3851 23.8598 37.5148C23.8409 37.6015 23.8125 37.7216 23.7983 37.8513L23.7889 37.986C23.7889 38.5723 23.8172 39.2259 23.8503 39.9039C23.8834 40.5816 23.9165 41.2831 23.926 41.9803C23.9401 43.2973 23.8692 44.5325 23.5431 45.4938L23.4722 45.6814C23.3587 45.9746 23.1791 46.2486 22.9711 46.5659C22.7773 46.8733 22.5504 47.2194 22.4133 47.6039L23.0515 47.9934C24.1717 46.734 24.9707 45.0663 25.2732 43.4654L25.311 43.2397C25.5001 42.1438 25.623 40.6679 25.4103 39.5336L25.3583 39.298L25.3252 39.1925C25.2448 38.9473 25.0935 38.6925 24.9943 38.5048C24.8714 38.2792 24.8005 38.1203 24.7768 38.0052V37.9618L24.7721 37.9377C24.7768 37.9043 24.7863 37.8655 24.8099 37.8033C24.8383 37.7166 24.8856 37.6303 24.947 37.5102C25.0415 37.3176 25.1975 37.0244 25.207 36.6882V36.6207C25.1928 36.2937 25.051 36.0247 24.9376 35.8229C24.8194 35.621 24.739 35.5008 24.687 35.3758L24.6681 35.323C24.6019 35.1162 24.5688 34.8759 24.5263 34.5779C24.4885 34.3376 24.4459 34.0588 24.3561 33.7896L24.3183 33.6742C24.0489 32.9725 23.6471 32.2707 23.2547 31.5834C22.9096 30.9729 22.574 30.3673 22.314 29.7376L22.21 29.4636C22.0493 29.031 21.95 28.7234 21.8602 28.4686C21.7751 28.2139 21.6995 28.0072 21.5955 27.8053C21.4442 27.4977 21.241 27.2141 20.8817 26.7767L20.4657 26.2864C20.3381 26.1326 20.2814 26.022 20.253 25.9355C20.2247 25.8586 20.2199 25.7769 20.2294 25.6807C20.2436 25.5606 20.2672 25.4644 20.3003 25.2818C20.3239 25.1568 20.3428 25.0126 20.3476 24.854V24.6858C20.3381 24.4599 20.2814 24.2339 20.2341 24.0609C20.1963 23.9167 20.1727 23.8061 20.1585 23.71L20.149 23.6187C20.1396 23.3495 20.1963 23.0611 20.2578 22.7006C20.305 22.4026 20.3617 22.0613 20.3523 21.7104L20.3428 21.5614C20.3192 21.249 20.2105 20.951 20.1348 20.7298C20.0545 20.4799 20.0025 20.3117 20.0072 20.153L20.0167 20.0857C20.0308 20.0088 20.0592 19.9127 20.1112 19.7877C20.1821 19.6147 20.2578 19.4657 20.3476 19.2542C20.4326 19.0619 20.5272 18.8264 20.5745 18.5765C20.7116 18.6966 20.8203 18.8553 20.9337 19.0427C21.0472 19.2398 21.137 19.4368 21.2552 19.6676C21.3733 19.8887 21.5057 20.1242 21.6806 20.3357L21.794 20.4607C22.054 20.7491 22.3376 20.9846 22.5882 21.2057C22.8765 21.4653 23.1413 21.72 23.3634 22.0613L23.4391 22.1767C23.7983 22.7583 23.9591 23.3255 24.1717 23.9599C24.3939 24.6281 24.6681 25.3299 25.2968 26.0268C25.363 26.0989 25.4339 26.147 25.4906 26.1806C25.5379 26.2047 25.5993 26.2383 25.6182 26.2479C25.6371 26.2575 25.6466 26.2623 25.6513 26.2672C25.6986 26.3681 25.7317 26.5123 25.7459 26.7045C25.7648 26.9016 25.7601 27.1275 25.7506 27.3727C25.7364 27.8293 25.6891 28.4013 25.7506 28.8243L25.7742 28.9589C25.8404 29.2761 25.9586 29.5982 26.0862 29.9106C26.2422 30.2904 26.3935 30.6316 26.54 31.0066C26.8237 31.7516 26.9607 32.4101 26.7291 32.9917L26.6866 33.0927L26.7055 33.1984L27.0364 35.2845L27.32 35.2364L27.7738 35.3326L27.7974 35.2461V35.2124C27.8636 34.5539 27.9061 33.9338 28.0149 33.3186C28.204 32.2467 28.2985 31.3286 28.9272 30.6364L29.2014 30.348C29.4708 30.0692 29.7213 29.8289 29.9908 29.5597C30.3406 29.204 30.6904 28.8195 31.0497 28.3004L31.5177 27.6226C32.0093 26.892 32.5623 26.0509 32.9358 25.3971L33.0067 25.2722C33.7157 23.9551 34.127 21.9556 34.0608 20.0281ZM19.1989 20.5232V20.4751C19.1989 20.5184 19.1989 20.5664 19.2083 20.6097C19.2036 20.5808 19.1989 20.552 19.1989 20.5232ZM26.6251 24.3925C26.3982 24.1859 26.2139 23.9311 26.0295 23.6475C25.8215 23.3207 25.5946 22.9073 25.3346 22.5612L25.2164 22.4122C25.0557 22.2199 24.8005 22.0469 24.6208 21.9267C24.5216 21.8594 24.4412 21.8017 24.375 21.7489C24.3372 21.72 24.3183 21.7008 24.3041 21.6864L24.2899 21.672L24.2616 21.6239C24.2096 21.5134 24.2001 21.3884 24.1434 21.124C24.0961 20.8596 24.0016 20.5472 23.7274 20.2347L23.6707 20.1771L23.5714 20.0857C23.3351 19.8839 23.0609 19.7829 22.8624 19.7108C22.6355 19.6243 22.5173 19.5763 22.4511 19.5138L22.4227 19.4897L22.3944 19.4513C22.3329 19.3552 22.2715 19.1917 22.2053 18.9322C22.1391 18.6774 22.0635 18.3169 21.9642 18.0093C21.8602 17.7016 21.7042 17.3556 21.4111 17.1201C21.241 16.9902 21.0519 16.9037 20.8344 16.8701C20.8864 16.774 20.9573 16.673 21.0377 16.5721C21.2599 16.2933 21.553 16.0193 21.8933 15.7597C22.574 15.2406 23.3918 14.8128 23.9827 14.5869C25.8168 13.8899 28.1992 14.0726 29.9766 14.933L30.0192 14.957C30.1137 15.0099 30.1562 15.0724 30.2082 15.1541C30.2602 15.2454 30.369 15.4713 30.5675 15.6396L30.629 15.6876C30.7707 15.7934 30.9315 15.8559 31.0686 15.8991C31.1442 15.928 31.2245 15.952 31.3002 15.9712C31.3711 15.9905 31.4373 16.0097 31.5035 16.0289C31.6311 16.0722 31.702 16.1058 31.7445 16.1395C31.7682 16.1587 31.7776 16.1731 31.7823 16.2164V16.25C31.7823 16.25 31.7634 16.3029 31.7445 16.3413C31.7067 16.4231 31.6453 16.5144 31.5555 16.6298C31.5129 16.6826 31.4704 16.7403 31.4231 16.798C31.3758 16.8605 31.3238 16.923 31.2765 16.9854C31.2056 17.0768 31.1347 17.1825 31.0686 17.2931L31.0119 17.4084C30.8653 17.7161 30.7897 18.0237 30.7187 18.2784C30.6479 18.5476 30.577 18.7735 30.4493 18.9946L30.402 19.0764C30.2791 19.2638 30.1137 19.4273 29.9104 19.6147C29.7214 19.7925 29.4945 19.9992 29.2959 20.254L29.2156 20.3645C29.0312 20.6337 28.8941 20.9173 28.7759 21.1721C28.6814 21.3739 28.601 21.5518 28.5065 21.72L28.4072 21.8883C28.1047 22.3641 27.7691 22.8256 27.424 23.2918C27.1593 23.6523 26.8851 24.0176 26.6251 24.3925ZM32.7561 21.8017C32.6096 22.7919 32.3212 23.7388 31.8769 24.4791L31.7823 24.6233C31.6358 24.8492 31.4136 25.0943 31.1631 25.3779C30.9598 25.6086 30.7329 25.873 30.5722 26.1374L30.5108 26.2527C30.3595 26.5555 30.3122 26.8728 30.2697 27.1131C30.2271 27.3439 30.1941 27.5025 30.1279 27.6323L30.0995 27.6851C30.0333 27.7909 29.9199 27.9206 29.7544 28.0793C29.589 28.2379 29.4046 28.4013 29.2014 28.5744C28.8185 28.906 28.3647 29.3002 28.1236 29.6943V29.7039L27.8022 30.2663C27.7927 30.2423 27.788 30.2135 27.7738 30.1894C27.684 29.9346 27.4996 29.7328 27.4004 29.6174C27.3389 29.5453 27.3011 29.4973 27.2775 29.454C27.2633 29.4347 27.2586 29.4204 27.2538 29.4155V29.4059C27.2302 29.2185 27.2822 28.9781 27.3578 28.6176C27.4145 28.3292 27.4854 27.9783 27.476 27.6274L27.4665 27.4736L27.4523 27.3727C27.4051 27.1372 27.2869 26.8776 27.2018 26.7045C27.1735 26.6469 27.1451 26.5844 27.1167 26.5363C27.1167 26.5315 27.1309 26.5267 27.1356 26.5219C27.1876 26.4738 27.2538 26.4162 27.3106 26.3633C27.3673 26.3104 27.4334 26.2431 27.4902 26.1662L27.6225 25.9691C27.7785 25.724 28.0101 25.3539 28.2276 24.9886C28.3694 24.7482 28.5112 24.5031 28.6294 24.2964C28.7334 24.0993 28.8326 23.9023 28.8752 23.7773L28.9036 23.6763C28.9603 23.4408 28.9603 23.2053 28.9603 23.0419C28.9603 22.8208 28.9697 22.739 28.9934 22.7006C28.9981 22.6958 29.017 22.6718 29.0596 22.6237C29.1116 22.566 29.1777 22.4939 29.2534 22.417C29.3952 22.2776 29.5843 22.0853 29.6883 21.9411L29.8584 21.696C30.0239 21.446 30.1799 21.1913 30.3311 20.9558C30.5391 20.6337 30.7424 20.3357 30.9882 20.0714C31.1158 19.9319 31.2718 19.8214 31.4798 19.6435C31.6736 19.4849 31.9005 19.283 32.0707 19.0139L32.1558 18.8697C32.3212 18.5572 32.3732 18.2784 32.4016 18.0237C32.4063 18.0285 32.4063 18.0333 32.4111 18.0429C32.5765 18.3361 32.6947 18.5524 32.7372 18.7783L32.7609 18.9466C32.8932 19.8022 32.898 20.8116 32.7561 21.8017Z" fill="#F8F7F5"/>
</svg>
