<svg aria-hidden="true" xmlns="http://www.w3.org/2000/svg" xmlns:xlink="http://www.w3.org/1999/xlink"><symbol viewBox="0 0 17 17" fill="none" id="icon-arrow-line-next" xmlns="http://www.w3.org/2000/svg">
<path d="M8.83443 16.8615C8.64972 17.0462 8.35023 17.0462 8.16552 16.8615C7.9808 16.6767 7.9808 16.3773 8.16552 16.1925L15.3851 8.97295H0.472947C0.211718 8.97295 1.19612e-07 8.76123 0 8.5C6.37931e-07 8.23877 0.211717 8.02706 0.472947 8.02705H15.3851L8.16552 0.807454C7.9808 0.622738 7.9808 0.323254 8.16552 0.138537C8.35023 -0.0461791 8.64972 -0.0461791 8.83443 0.138537L16.8615 8.16554C17.0462 8.35026 17.0462 8.64974 16.8615 8.83446L8.83443 16.8615Z" fill="currentColor"/>
</symbol><symbol viewBox="0 0 10 18" fill="none" id="icon-arrow-next" xmlns="http://www.w3.org/2000/svg">
<path d="M0.00188986 1.00525C0.00112885 1.13678 0.0263402 1.26717 0.0760772 1.38894C0.125814 1.51071 0.199101 1.62147 0.291732 1.71485L7.58772 9.00085L0.291734 16.2869C0.103533 16.4751 -0.00219743 16.7303 -0.0021974 16.9965C-0.00219736 17.2626 0.103533 17.5179 0.291734 17.7061C0.479934 17.8943 0.735188 18 1.00134 18C1.2675 18 1.52275 17.8943 1.71095 17.7061L9.70656 9.71046C9.80024 9.61755 9.87459 9.50701 9.92533 9.38522C9.97607 9.26343 10.0022 9.13279 10.0022 9.00085C10.0022 8.86891 9.97607 8.73828 9.92533 8.61649C9.87459 8.49469 9.80024 8.38416 9.70656 8.29124L1.71095 0.295636C1.61804 0.201959 1.5075 0.127605 1.38571 0.0768635C1.26391 0.0261223 1.13328 -7.4433e-07 1.00134 -7.27028e-07C0.869401 -7.09726e-07 0.738767 0.0261224 0.616974 0.0768636C0.495183 0.127605 0.384643 0.201959 0.291731 0.295636C0.199101 0.389026 0.125814 0.499778 0.0760771 0.621549C0.0263401 0.74332 0.00112881 0.873712 0.00188986 1.00525Z" fill="currentColor"/>
</symbol><symbol viewBox="0 0 10 18" fill="none" id="icon-arrow-prev" xmlns="http://www.w3.org/2000/svg">
<path d="M10.0003 16.9948C10.0011 16.8632 9.97586 16.7328 9.92612 16.6111C9.87638 16.4893 9.80309 16.3785 9.71046 16.2851L2.41447 8.99915L9.71046 1.71315C9.89866 1.52495 10.0044 1.2697 10.0044 1.00354C10.0044 0.737385 9.89866 0.482131 9.71046 0.29393C9.52226 0.10573 9.26701 0 9.00085 0C8.7347 0 8.47945 0.10573 8.29125 0.29393L0.295636 8.28954C0.201959 8.38245 0.127606 8.49299 0.0768649 8.61478C0.0261241 8.73657 0 8.86721 0 8.99915C0 9.13109 0.0261241 9.26172 0.0768649 9.38351C0.127606 9.50531 0.201959 9.61585 0.295636 9.70876L8.29125 17.7044C8.38416 17.798 8.4947 17.8724 8.61649 17.9231C8.73828 17.9739 8.86892 18 9.00085 18C9.13279 18 9.26343 17.9739 9.38522 17.9231C9.50701 17.8724 9.61755 17.798 9.71046 17.7044C9.80309 17.611 9.87638 17.5002 9.92612 17.3785C9.97586 17.2567 10.0011 17.1263 10.0003 16.9948Z" fill="currentColor"/>
</symbol><symbol viewBox="0 0 14 14" fill="none" id="icon-arrow-rotate" xmlns="http://www.w3.org/2000/svg">
<path d="M1 13L13 1M13 1H1M13 1V13" stroke="currentColor" stroke-linecap="round" stroke-linejoin="round"/>
</symbol><symbol viewBox="0 0 24 24" fill="none" id="icon-close" xmlns="http://www.w3.org/2000/svg">
<path fill-rule="evenodd" clip-rule="evenodd" d="M6.25105 6.25105C6.58579 5.91632 7.1285 5.91632 7.46323 6.25105L12 10.7878L16.5368 6.25105C16.8715 5.91632 17.4142 5.91632 17.7489 6.25105C18.0837 6.58579 18.0837 7.1285 17.7489 7.46323L13.2122 12L17.7489 16.5368C18.0837 16.8715 18.0837 17.4142 17.7489 17.7489C17.4142 18.0837 16.8715 18.0837 16.5368 17.7489L12 13.2122L7.46323 17.7489C7.1285 18.0837 6.58579 18.0837 6.25105 17.7489C5.91632 17.4142 5.91632 16.8715 6.25105 16.5368L10.7878 12L6.25105 7.46323C5.91632 7.1285 5.91632 6.58579 6.25105 6.25105Z" fill="currentColor"/>
</symbol><symbol viewBox="0 0 36 36" fill="none" id="icon-play" xmlns="http://www.w3.org/2000/svg">
<path d="M31 15.4019C33 16.5566 33 19.4434 31 20.5981L13.75 30.5574C11.75 31.7121 9.25 30.2687 9.25 27.9593L9.25 8.0407C9.25 5.7313 11.75 4.28793 13.75 5.44263L31 15.4019Z" fill="currentColor"/>
</symbol><symbol viewBox="0 0 22 22" fill="none" id="icon-services" xmlns="http://www.w3.org/2000/svg">
<path d="M11.9091 15.5455C11.9091 18.5579 9.46701 21 6.45455 21C3.44208 21 1 18.5579 1 15.5455C1 12.533 3.44208 10.0909 6.45455 10.0909C9.46701 10.0909 11.9091 12.533 11.9091 15.5455Z" stroke="currentColor"/>
<path d="M11.9091 6.45455C11.9091 9.46701 9.46701 11.9091 6.45455 11.9091C3.44208 11.9091 1 9.46701 1 6.45455C1 3.44208 3.44208 1 6.45455 1C9.46701 1 11.9091 3.44208 11.9091 6.45455Z" stroke="currentColor"/>
<path d="M21 15.5455C21 18.5579 18.5579 21 15.5455 21C12.533 21 10.0909 18.5579 10.0909 15.5455C10.0909 12.533 12.533 10.0909 15.5455 10.0909C18.5579 10.0909 21 12.533 21 15.5455Z" stroke="currentColor"/>
<path d="M21 6.45455C21 9.46701 18.5579 11.9091 15.5455 11.9091C12.533 11.9091 10.0909 9.46701 10.0909 6.45455C10.0909 3.44208 12.533 1 15.5455 1C18.5579 1 21 3.44208 21 6.45455Z" stroke="currentColor"/>
</symbol><symbol fill="currentColor" viewBox="0 0 256 256" id="icon-tel" xmlns="http://www.w3.org/2000/svg"><path d="M222.37,158.46l-47.11-21.11-.13-.06a16,16,0,0,0-15.17,1.4,8.12,8.12,0,0,0-.75.56L134.87,160c-15.42-7.49-31.34-23.29-38.83-38.51l20.78-24.71c.2-.25.39-.5.57-.77a16,16,0,0,0,1.32-15.06l0-.12L97.54,33.64a16,16,0,0,0-16.62-9.52A56.26,56.26,0,0,0,32,80c0,79.4,64.6,144,144,144a56.26,56.26,0,0,0,55.88-48.92A16,16,0,0,0,222.37,158.46ZM176,208A128.14,128.14,0,0,1,48,80,40.2,40.2,0,0,1,82.87,40a.61.61,0,0,0,0,.12l21,47L83.2,111.86a6.13,6.13,0,0,0-.57.77,16,16,0,0,0-1,15.7c9.06,18.53,27.73,37.06,46.46,46.11a16,16,0,0,0,15.75-1.14,8.44,8.44,0,0,0,.74-.56L168.89,152l47,21.05h0s.08,0,.11,0A40.21,40.21,0,0,1,176,208Z"/></symbol><symbol viewBox="0 0 30 28" fill="none" id="icon-tg" xmlns="http://www.w3.org/2000/svg">
<path d="M27.779 0.502719C27.4085 0.529727 27.0449 0.616817 26.7022 0.760591H26.6976C26.3687 0.891261 24.8049 1.5504 22.4274 2.54951L13.9078 6.14468C7.79444 8.72341 1.78498 11.2628 1.78498 11.2628L1.85654 11.2351C1.85654 11.2351 1.44221 11.3715 1.00942 11.6687C0.742045 11.8392 0.511968 12.0622 0.333112 12.3244C0.120755 12.6366 -0.0500533 13.1142 0.0134228 13.6079C0.117293 14.4428 0.657417 14.9436 1.0452 15.2199C1.4376 15.4998 1.81153 15.6304 1.81153 15.6304H1.82076L7.45629 17.5327C7.70904 18.3456 9.1736 23.17 9.52561 24.2813C9.73335 24.9451 9.93532 25.3602 10.1881 25.6771C10.3104 25.839 10.4535 25.9742 10.6255 26.0829C10.7149 26.135 10.8102 26.1762 10.9094 26.2055L10.8517 26.1916C10.869 26.1963 10.8828 26.2101 10.8955 26.2148C10.9417 26.2275 10.9729 26.2321 11.0317 26.2414C11.9239 26.512 12.6406 25.9569 12.6406 25.9569L12.6809 25.9245L16.0083 22.889L21.5849 27.1757L21.7119 27.2301C22.8741 27.7412 24.0513 27.4567 24.6733 26.9549C25.3 26.4495 25.5435 25.8031 25.5435 25.8031L25.5839 25.699L29.8934 3.57868C30.0157 3.03287 30.0469 2.52175 29.9118 2.02567C29.7726 1.5236 29.4511 1.09179 29.0105 0.81494C28.6405 0.58958 28.2115 0.480804 27.779 0.502719ZM27.6625 2.87329C27.6578 2.94614 27.6717 2.93805 27.6394 3.07797V3.09069L23.3703 24.9809C23.3519 25.0121 23.3207 25.0804 23.2353 25.1486C23.1453 25.2203 23.0737 25.2654 22.6986 25.1162L15.8778 19.8767L11.7577 23.6395L12.6232 18.1005L23.7673 7.69307C24.2267 7.26521 24.0732 7.17502 24.0732 7.17502C24.1055 6.65002 23.3796 7.02122 23.3796 7.02122L9.3271 15.7438L9.32248 15.7206L2.58709 13.4484V13.4437L2.56978 13.4403C2.58159 13.4363 2.59315 13.4317 2.6044 13.4264L2.64133 13.4079L2.67711 13.3952C2.67711 13.3952 8.69118 10.8558 14.8045 8.27704C17.8652 6.98537 20.949 5.68445 23.3207 4.68071C24.7273 4.08749 26.1353 3.49774 27.5447 2.91145C27.6394 2.87445 27.5944 2.87329 27.6625 2.87329Z" fill="currentColor"/>
</symbol><symbol viewBox="0 0 32 18" fill="none" id="icon-vk" xmlns="http://www.w3.org/2000/svg">
<path fill-rule="evenodd" clip-rule="evenodd" d="M17.5693 17.8851C17.5693 17.8851 18.1469 17.8221 18.4427 17.5103C18.7134 17.2245 18.704 16.6853 18.704 16.6853C18.704 16.6853 18.668 14.1673 19.8591 13.7955C21.0329 13.4298 22.5402 16.2305 24.1397 17.3075C25.348 18.1217 26.2651 17.9435 26.2651 17.9435L30.5395 17.8851C30.5395 17.8851 32.7745 17.7499 31.7149 16.0247C31.6272 15.8833 31.0967 14.748 28.5377 12.4158C25.8566 9.97464 26.2166 10.3695 29.4439 6.14614C31.4097 3.57434 32.1954 2.00422 31.9497 1.33285C31.7165 0.690673 30.2703 0.861204 30.2703 0.861204L25.4591 0.890394C25.4591 0.890394 25.1023 0.842768 24.8378 0.997936C24.5795 1.15003 24.412 1.50492 24.412 1.50492C24.412 1.50492 23.6514 3.49445 22.6356 5.18747C20.493 8.75788 19.6369 8.94684 19.2863 8.72561C18.4708 8.20787 18.6743 6.64851 18.6743 5.54083C18.6743 2.0795 19.2096 0.636902 17.6335 0.263576C17.1107 0.139135 16.7257 0.0577098 15.3875 0.043883C13.6706 0.0269835 12.2182 0.0500282 11.3949 0.444862C10.8471 0.707572 10.4245 1.29445 10.6828 1.32824C11.0005 1.36973 11.7205 1.51875 12.1024 2.02881C12.5954 2.68789 12.5782 4.16582 12.5782 4.16582C12.5782 4.16582 12.8614 8.24014 11.9161 8.74559C11.2681 9.09279 10.3792 8.38455 8.46815 5.14446C7.48995 3.48523 6.75121 1.65087 6.75121 1.65087C6.75121 1.65087 6.60878 1.30827 6.35367 1.12391C6.04534 0.901148 5.61493 0.832014 5.61493 0.832014L1.04321 0.861204C1.04321 0.861204 0.356125 0.87964 0.104141 1.17308C-0.119672 1.43271 0.0869242 1.97196 0.0869242 1.97196C0.0869242 1.97196 3.66636 10.1928 7.72002 14.3362C11.4372 18.134 15.6567 17.8851 15.6567 17.8851H17.5693Z" fill="currentColor"/>
</symbol><symbol viewBox="0 0 30 30" fill="none" id="icon-wh" xmlns="http://www.w3.org/2000/svg">
<path d="M25.6281 4.36503C24.246 2.97592 22.5998 1.87454 20.7854 1.12512C18.971 0.375694 17.0248 -0.00676593 15.0603 4.35778e-05C6.82914 4.35778e-05 0.120603 6.67502 0.120603 14.865C0.120603 17.49 0.81407 20.04 2.11055 22.29L0 30L7.91457 27.93C10.1005 29.115 12.5578 29.745 15.0603 29.745C23.2915 29.745 30 23.07 30 14.88C30 10.905 28.4472 7.17002 25.6281 4.36503ZM15.0603 27.225C12.8291 27.225 10.6432 26.625 8.72864 25.5L8.27638 25.23L3.57286 26.46L4.82412 21.9L4.52261 21.435C3.28303 19.4654 2.62483 17.1889 2.62312 14.865C2.62312 8.05502 8.201 2.50504 15.0452 2.50504C18.3618 2.50504 21.4824 3.79503 23.8191 6.13503C24.9761 7.28097 25.893 8.64401 26.5167 10.1452C27.1403 11.6463 27.4583 13.2557 27.4523 14.88C27.4824 21.69 21.9045 27.225 15.0603 27.225ZM21.8744 17.985C21.4975 17.805 19.6583 16.905 19.3266 16.77C18.9799 16.65 18.7387 16.59 18.4824 16.95C18.2261 17.325 17.5176 18.165 17.3065 18.405C17.0955 18.66 16.8693 18.69 16.4925 18.495C16.1156 18.315 14.9095 17.91 13.4925 16.65C12.3769 15.66 11.6382 14.445 11.4121 14.07C11.201 13.695 11.3819 13.5 11.5779 13.305C11.7437 13.14 11.9548 12.87 12.1357 12.66C12.3166 12.45 12.392 12.285 12.5126 12.045C12.6332 11.79 12.5729 11.58 12.4824 11.4C12.392 11.22 11.6382 9.39002 11.3367 8.64002C11.0352 7.92002 10.7186 8.01002 10.4925 7.99502H9.76884C9.51256 7.99502 9.1206 8.08502 8.77387 8.46002C8.44221 8.83502 7.47739 9.73501 7.47739 11.565C7.47739 13.395 8.8191 15.165 9 15.405C9.1809 15.66 11.6382 19.41 15.3769 21.015C16.2663 21.405 16.9598 21.63 17.5025 21.795C18.392 22.08 19.206 22.035 19.8543 21.945C20.5779 21.84 22.0703 21.045 22.3719 20.175C22.6884 19.305 22.6884 18.57 22.5829 18.405C22.4774 18.24 22.2513 18.165 21.8744 17.985Z" fill="currentColor"/>
</symbol></svg>