<svg width="166" height="190" viewBox="0 0 166 190" fill="none" xmlns="http://www.w3.org/2000/svg">
<g clip-path="url(#clip0_2001_883)">
<path d="M160.861 188.952V137.093H165.926V188.952H160.861Z" fill="#F8F7F5"/>
<path d="M151.226 137.083V188.943H146.172V141.377H145.721L127.719 175.749H125.407L104.943 145.446H104.502L106.137 188.931H101.072L102.793 136.879H105.029L127.859 170.707H128.299L145.861 137.072H151.216L151.226 137.083Z" fill="#F8F7F5"/>
<path d="M51.0467 137.083H56.1008V168.351C56.1008 174.325 57.5633 178.995 60.4882 182.357C63.467 185.665 67.6286 187.325 72.9837 187.325C76.3603 187.325 79.2853 186.683 81.759 185.398C84.2856 184.059 86.2214 182.239 87.5658 179.915C88.9523 177.592 89.5979 174.925 89.5009 171.916L88.232 137.093H93.2971L92.0283 171.916C91.8343 177.848 90.0391 182.335 86.673 185.398C83.3498 188.461 78.5863 189.992 72.3816 189.992C65.6821 189.992 60.456 188.064 56.6815 184.209C52.907 180.311 51.0251 174.968 51.0251 168.2V137.083H51.0467Z" fill="#F8F7F5"/>
<path d="M18.453 188.953V167.023L0 137.083H5.65633L22.249 164.196H22.7006L35.9489 137.083H41.6052L23.819 165.973V188.942H18.4637L18.453 188.953Z" fill="#F8F7F5"/>
<path d="M130.928 56.1288L130.562 56.7284C128.863 59.4697 126.314 63.0034 124.389 65.6376C122.346 68.4324 119.776 70.5098 117.195 72.448C114.744 74.2683 112.313 75.9495 110.163 78.0054L109.743 78.4231C107.324 80.8434 104.818 84.9656 103.872 89.0459C102.936 93.0826 103.57 96.809 106.969 98.9718L111.453 100.76L113.099 101.082L111.797 102.227L111.399 102.581L110.99 102.42C110.173 102.27 109.453 102.334 108.582 102.388C107.808 102.442 106.948 102.473 105.958 102.26L105.517 102.142C102.936 101.392 101.377 98.8008 100.56 96.231C99.732 93.6288 99.5277 90.7163 99.8926 88.8424L100.065 88.0389C100.936 84.1201 102.388 81.6572 104.409 79.5799C105.474 78.4873 106.689 77.5129 108.012 76.5063C109.356 75.4891 110.797 74.4397 112.41 73.1547L112.851 72.7906C113.862 71.9232 114.647 71.0452 115.411 70.1136C116.163 69.2034 116.927 68.2075 117.83 67.1903L118.217 66.762C119.507 65.3699 121.733 63.346 123.734 61.4078C124.744 60.4227 125.712 59.4375 126.508 58.538C127.325 57.6279 127.927 56.8355 128.239 56.2251L128.529 55.6362C129.916 52.5843 130.605 48.3439 130.734 43.975C130.852 39.6168 130.422 35.2372 129.637 31.9605L129.476 31.318C129.132 30.0223 128.777 29.4869 128.357 29.0265C128.013 28.641 127.379 28.0948 126.701 27.2596L126.4 26.8848C125.841 26.1353 125.4 25.3 125.013 24.5291C124.615 23.7366 124.261 23.0299 123.831 22.4088C123.357 21.7235 122.357 20.7598 121.196 19.7318C120.636 19.2286 120.045 18.7252 119.497 18.2541C118.959 17.7829 118.443 17.3439 118.023 16.9691C114.862 14.1314 111.69 11.433 108.238 9.13077C104.796 6.81779 101.065 4.90103 96.796 3.62676L95.9676 3.39118C94.1827 2.89861 93.1397 2.87719 92.1507 2.96286C91.172 3.04853 89.989 3.2841 88.2686 3.2841C87.0641 3.2841 85.9138 3.06994 84.8166 2.89861C83.8491 2.73799 82.8919 2.59878 81.8592 2.59878H81.4187C60.718 3.35906 44.3727 15.5878 39.4799 32.9028L39.2541 33.7381C38.8992 35.1194 38.8992 36.4901 38.9852 37.9356C39.0605 39.3491 39.2433 40.9232 39.1573 42.5294C39.0605 44.4461 38.8454 46.5878 38.6304 48.6117L38.4153 50.5712C38.3293 51.385 38.1035 52.2203 37.9421 52.927C37.7701 53.6766 37.6518 54.3298 37.6948 54.9615L37.7164 55.2507C37.8024 55.936 38.0282 56.6855 38.3078 57.5422C38.6088 58.4738 38.9745 59.5232 39.1251 60.5405L39.1895 61.0117C39.3186 62.1039 39.3401 63.1961 39.3831 64.2134C39.4369 65.3913 39.5121 66.5157 39.7918 67.6293L39.9745 68.3146C42.007 75.3391 47.9106 81.3786 53.8143 86.5505L60.1589 90.9411L59.4599 92.4825C55.8467 91.6045 52.169 89.399 49.2871 87.343L48.7279 86.925C42.7274 82.5241 37.7594 75.5212 36.3829 68.5502L36.2538 67.8756C35.9312 65.9267 35.856 63.9671 35.7915 62.061C35.7484 60.3692 35.7054 58.7415 35.5549 57.1139L35.4796 56.4286C35.2968 54.9295 34.9527 53.5374 34.6624 51.9954C34.372 50.4855 34.1462 48.8901 34.2752 47.2089V47.1339C35.3828 40.3235 36.5442 31.9391 38.8347 25.2465L39.082 24.5826C41.6951 17.6759 47.8461 11.4437 55.266 6.99982C62.944 2.39533 72.1059 -0.367372 80.44 0.0395372L80.8376 0.0609535C81.7733 0.125202 82.752 0.264408 83.6877 0.392906C84.784 0.54282 85.8271 0.671318 86.7954 0.692734H87.7741C92.5593 0.671318 95.7418 -0.121085 101.184 1.6993L102.14 2.04196C112.066 5.63989 119.626 12.536 125.228 20.3422L126.368 21.9163C129.089 25.5999 132.024 29.4334 133.25 33.9843L133.411 34.6376C134.993 41.2016 134.412 50.0144 130.928 56.1288Z" fill="#F8F7F5"/>
<path d="M55.1801 99.2504L54.7499 99.9677C54.5778 100.257 54.2983 100.471 53.9327 100.514C53.6315 100.557 53.3842 100.461 53.266 100.407C53.1261 100.343 53.0078 100.268 52.9433 100.236C52.8895 100.204 52.8681 100.193 52.8681 100.193C50.255 99.2188 47.1579 97.3766 44.9535 95.9096C40.8242 93.1681 37.1035 89.9776 34.0817 86.3471C31.0492 82.7173 28.6942 78.6695 27.2747 74.1828L27.0167 73.3048C24.7799 65.4557 23.425 59.1914 23.9197 50.8604L23.9842 50.0039C24.167 47.9907 24.5756 46.0418 25.038 44.1358C25.5757 41.9192 26.1779 39.8311 26.651 37.668L26.7801 37.0684L27.3823 36.9935C27.6834 36.9613 28.0705 37.0148 28.3501 37.3361C28.5867 37.6038 28.6297 37.9143 28.6405 38.0643C28.6512 38.2249 28.6297 38.3855 28.6189 38.4819C28.6082 38.5354 28.5975 38.589 28.5975 38.621C28.5975 38.6318 28.5974 38.6532 28.5867 38.6532V38.6746C28.4039 40.7199 28.3609 43.0222 28.0813 45.1745C28.006 45.8062 27.9737 46.4487 27.9737 47.1233C27.9737 48.3547 28.0813 49.6505 28.1996 50.989C28.3501 52.8736 28.5329 54.8546 28.3823 56.6965L28.3393 57.0605C28.2318 58.0456 27.7479 59.3092 27.393 60.3372C27.2102 60.8833 27.0489 61.3973 26.9522 61.847C26.8769 62.1897 26.8553 62.4681 26.8553 62.6716L26.8769 62.8536L26.8984 62.9392C26.9414 63.0356 27.0167 63.1427 27.1995 63.3569C27.4146 63.5924 27.8017 64.0101 27.9737 64.6204L28.0275 64.856C28.135 65.4129 28.135 65.959 28.1135 66.4194C28.092 66.9869 28.0705 67.426 28.1135 67.8436L28.2318 68.5718C28.5114 70.1672 28.9523 71.131 29.5115 72.009C29.8556 72.5337 30.2427 73.0263 30.7159 73.6367C31.189 74.2256 31.7267 74.911 32.3073 75.7569C33.0279 76.7849 33.6516 77.8878 34.2538 78.9372C34.8452 79.9757 35.4152 80.9827 36.0711 81.9137L36.1356 82C38.4046 85.1904 41.5016 88.35 44.5126 91.1335L45.6632 92.1935C48.3838 94.6136 51.2765 96.8517 54.4488 98.8119L55.1693 99.2504H55.1801Z" fill="#F8F7F5"/>
<path d="M138.358 66.4191C138.218 68.7642 138.165 71.0343 137.401 73.4865C137.025 74.7072 136.003 77.0951 134.874 79.3545C134.304 80.4898 133.702 81.614 133.121 82.556C132.551 83.4878 131.96 84.3127 131.422 84.8052C130.992 85.1907 130.465 85.4472 130.078 85.6507C129.648 85.8755 129.347 86.0362 129.142 86.2294C128.852 86.5072 128.562 87.0321 128.207 87.7494C127.884 88.4033 127.508 89.2274 127.11 89.8164C126.734 90.373 126.293 90.844 125.895 91.2509C125.573 91.5723 125.293 91.851 125.045 92.1297L124.798 92.4186C124.798 92.4186 124.734 92.5366 124.615 92.8572C124.518 93.1256 124.378 93.5325 124.056 93.9172C123.035 95.2029 121.561 96.0381 120.077 96.6802C118.679 97.2802 117.11 97.7727 115.862 98.2223L114.528 99.4969V96.8836L114.937 96.734C116.012 95.7381 117.378 94.849 118.593 94.0035C119.895 93.0931 121.045 92.2152 121.776 91.2193L121.938 90.973C122.099 90.6944 122.249 90.3516 122.443 89.9447C122.658 89.4633 122.948 88.8316 123.357 88.4033L123.475 88.2956C123.755 88.0494 124.11 87.8784 124.336 87.7494C124.658 87.5895 124.874 87.4715 125.024 87.3322L125.421 86.9791C127.282 85.2651 127.078 84.5803 128.519 82.1278L128.938 81.4319C129.949 79.8042 131.132 78.1981 132.154 76.6561C133.347 74.8357 134.38 73.0154 134.949 71.0022V70.9701L134.97 70.9486L136.681 66.0872L138.358 66.4191Z" fill="#F8F7F5"/>
<path d="M141.96 56.4713L141.885 56.7282C141.648 57.4029 141.121 57.7777 140.767 58.0025C140.638 58.0882 140.358 58.2381 140.304 58.2702C140.251 58.3131 140.218 58.3345 140.197 58.3452C140.186 58.3774 140.132 58.5272 140.089 58.8913C140.057 59.2768 140.057 59.7373 140.057 60.2619C140.057 60.7438 140.046 61.3007 139.961 61.7718C139.895 62.1894 139.713 62.864 139.089 63.196C138.874 63.3138 138.648 63.3566 138.465 63.378C138.282 63.3994 138.089 63.3994 137.896 63.3888C137.519 63.3673 137.089 63.3138 136.68 63.2495C136.272 63.1853 135.853 63.0996 135.497 63.0354C135.315 63.0032 135.153 62.9711 135.024 62.9497L134.691 62.8962L133.035 62.6927L134.153 61.472L134.39 61.2257C134.637 60.9794 134.917 60.701 135.218 60.4225C135.616 60.0478 136.046 59.6409 136.444 59.2339C136.852 58.827 137.207 58.4309 137.465 58.0668C137.735 57.6813 137.842 57.4136 137.863 57.2636C137.885 57.1673 137.863 57.0603 137.799 56.8353C137.745 56.664 137.595 56.2678 137.616 55.8502C137.723 53.4195 138.035 51.1494 137.896 48.8578L137.863 48.4081C137.766 47.3051 137.444 46.2236 137.079 45.0564C136.734 43.9214 136.326 42.6899 136.153 41.4263L137.788 40.9445L140.315 46.3949V46.4271L140.347 46.4591C140.734 47.5514 141.294 49.5217 141.681 51.4813C141.874 52.4665 142.025 53.4623 142.079 54.3403C142.133 55.1006 142.121 55.8502 141.96 56.4713Z" fill="#F8F7F5"/>
<path d="M90.0002 110.001L87.4299 110.441H87.3655L87.2899 110.451C85.5377 110.462 83.6559 110.494 81.8059 110.098L82.0102 108.395H82.2042C83.1606 108.374 83.6877 108.021 84.0749 107.538C84.5591 106.949 84.8492 106.147 85.2468 105.151L86.161 102.87L86.871 105.225C87.3329 106.725 88.3656 108.181 89.9143 108.298L90.0002 110.001Z" fill="#F8F7F5"/>
<path d="M108.065 61.1079L107.452 62.243C106.539 63.9242 105.302 65.3698 104.066 66.7297C102.968 67.9397 101.883 69.0641 100.925 70.2634L100.517 70.7881C94.9897 78.1124 91.4304 88.9706 92.6563 97.7937L92.7851 98.64L92.8392 98.8751C93.3766 101.317 95.3983 102.602 97.9575 104.326L99.0864 105.087L97.9146 105.782L97.6347 105.943L97.3119 105.889C95.2155 105.493 93.0967 104.326 91.5051 102.784C90.0105 101.349 88.8816 99.4966 88.7528 97.5475L88.7313 97.1517C88.7313 95.3095 88.8275 92.6756 89.1073 90.0734C89.3872 87.4926 89.8388 84.8476 90.5916 83.0489C90.9351 82.224 91.5377 81.4751 92.0107 80.8647C92.5378 80.2005 92.9036 79.697 93.0427 79.2474L93.1293 78.9369C93.2041 78.6158 93.2581 78.2624 93.3225 77.8448C93.3981 77.3307 93.4839 76.7097 93.6668 76.1208L93.8067 75.7245C94.5055 73.7757 95.7529 72.1587 97.0647 70.7131C97.7746 69.9422 98.5164 69.1926 99.2152 68.4752C99.9252 67.747 100.592 67.0403 101.184 66.3228L101.334 66.1301C101.667 65.6803 101.893 65.2091 102.119 64.6845C102.377 64.1062 102.657 63.4101 103.076 62.7356L103.27 62.4571C103.71 61.8361 104.27 61.29 104.743 60.8081C105.313 60.2299 105.786 59.7266 106.098 59.1805L106.195 58.9984C106.399 58.5701 106.517 58.1311 106.635 57.6278C106.765 57.0816 106.905 56.3964 107.195 55.7217L107.324 55.4326C107.668 54.7794 108.131 54.2333 108.442 53.805C108.829 53.291 109.077 52.8627 109.141 52.3273L109.217 51.6313C109.926 44.7031 108.561 37.5179 104.42 31.607L104.001 31.0181C102.98 29.6367 101.581 28.4589 100.022 27.3131C99.2375 26.7455 98.4417 26.1994 97.6244 25.6426C96.8715 25.1286 96.1186 24.6039 95.3983 24.0685C88.6558 22.8156 83.0207 21.3272 76.3752 22.4195L75.7192 22.5372C75.7192 22.5372 75.6869 22.5372 75.6439 22.5586C75.5795 22.5693 75.5042 22.6015 75.3966 22.6336C75.2031 22.6978 74.9449 22.7835 74.6439 22.8906C74.0525 23.094 73.2889 23.3725 72.5469 23.6509C71.7942 23.9293 71.0415 24.2184 70.4608 24.4433C70.1705 24.5611 69.9123 24.6681 69.7295 24.7431C69.536 24.8288 69.4499 24.8609 69.4499 24.8716C68.9445 25.1715 67.8262 26.1352 66.6648 27.2167C65.6647 28.159 64.7184 29.1121 64.2453 29.6582L64.0624 29.8723C63.4817 30.6112 63.0301 31.3822 62.5892 32.2067C62.2666 32.8063 61.9333 33.4595 61.5569 34.1127L61.1805 34.7659C60.8902 35.2263 60.4277 35.6975 60.1374 36.0188C59.7933 36.415 59.6213 36.6827 59.5675 36.8968C59.46 37.3359 59.4922 37.7642 59.5675 38.2889C59.6427 38.7815 59.7933 39.4454 59.7933 40.12C59.7826 40.9446 59.7718 41.587 59.7718 42.176C59.7718 43.2575 59.8149 44.157 59.9869 45.6454L60.0191 46.0202C60.1697 47.8298 59.8256 49.4147 59.417 50.8816C59.0298 52.2845 58.6104 53.5051 58.3954 54.7902L58.3201 55.3576C58.2448 56.043 58.3846 56.482 58.6212 56.9425C58.761 57.1994 58.9007 57.435 59.0943 57.7563C59.2771 58.0668 59.4814 58.4309 59.6536 58.8485L59.9223 59.5445C60.202 60.262 60.4816 61.033 60.7719 61.8361C61.1697 62.9176 61.5676 64.0313 61.9977 65.1342C62.8688 67.3615 63.8151 69.4175 64.8905 70.7881L65.5894 71.6983C66.2024 72.5336 66.5787 73.1118 66.8906 73.7328C67.2885 74.4931 67.6111 75.3712 68.2456 76.7418L68.353 76.9666C68.6219 77.4485 68.9768 77.8126 69.4285 78.3695C69.9123 78.9691 70.4285 79.7184 70.5683 80.8434L70.5898 81.0144C70.6113 81.4102 70.5898 81.8068 70.5576 82.1069C70.5253 82.4924 70.5253 82.7386 70.5576 82.9096C70.5683 82.9207 70.6006 82.9737 70.7833 83.1772C70.9339 83.3593 71.2028 83.6593 71.364 84.0876L71.4286 84.2697L71.5792 84.8801C73.0201 91.1762 70.2135 96.702 67.0519 101.756C66.9013 101.992 66.697 102.334 66.4605 102.655C66.2239 102.977 65.9228 103.341 65.5249 103.597L62.9441 105.311L64.2775 102.516C64.6324 101.767 65.0087 101.039 65.3744 100.332C65.74 99.6249 66.0949 98.929 66.4175 98.2434C67.0734 96.8516 67.6003 95.4813 67.8584 93.9605L67.9229 93.4784C68.0735 92.2149 68.1595 90.1059 68.095 88.0072C68.0627 86.8181 67.9875 85.6511 67.8584 84.6655C67.7186 83.6482 67.5466 82.9096 67.3423 82.5241L67.2562 82.3531C67.1487 82.1924 67.0196 82.0316 66.8476 81.8068C66.6218 81.5179 66.3529 81.1426 66.1593 80.6288L66.0519 80.2971C65.8367 79.5474 65.826 78.8513 65.8045 78.2731C65.783 77.6734 65.7615 77.1916 65.6002 76.6883L65.5249 76.4741C65.1916 75.6496 64.5893 74.9964 63.8474 74.3004C63.2344 73.7222 62.4602 73.0796 61.8472 72.3086L61.5891 71.9767C60.9224 71.013 59.9009 69.0534 58.9868 67.1259C58.2018 65.434 57.449 63.6672 57.0942 62.5L56.9651 62.0395C55.535 56.2251 56.4274 52.9055 56.8361 47.6157L56.8576 47.1017C56.9006 45.9131 56.7716 44.6602 56.6533 43.3003C56.5135 41.7904 56.3952 40.1521 56.6103 38.5031L56.6426 38.3317C56.6856 38.139 56.7608 37.9248 56.8361 37.7214C56.9544 37.4216 57.0942 37.0575 57.2663 36.6505C57.6104 35.8367 58.062 34.8409 58.5352 33.845C59.4492 31.8747 60.4707 29.808 60.8472 29.2406L61.1053 28.8443C63.9119 24.7752 68.7187 22.0018 73.9772 20.4705C79.4076 18.8965 85.4296 18.5967 90.4732 19.646L90.978 19.7531C96.1075 20.9631 101.248 24.454 105.205 28.7158C109.281 33.1062 112.238 38.4709 112.582 43.2789L112.614 43.9321C112.905 50.2499 110.947 55.6147 108.055 61.1079H108.065Z" fill="#F8F7F5"/>
<path d="M130.917 65.4125C129.766 68.0681 128.637 70.8629 127.336 73.5399L126.766 74.6857C126.325 75.5424 125.54 76.988 124.648 78.3479C124.207 79.0226 123.722 79.6968 123.239 80.2644C122.83 80.7576 122.389 81.2176 121.927 81.539L121.723 81.6673C121.163 82.0101 120.41 82.2135 119.884 82.3742C119.583 82.4597 119.335 82.5349 119.142 82.6101C118.927 82.6956 118.841 82.7598 118.83 82.7701C118.497 83.0812 117.905 83.7771 117.281 84.5371C116.97 84.9226 116.658 85.2979 116.378 85.6509L115.679 86.54C115.195 87.1393 114.862 87.771 114.356 88.531C113.948 89.1628 113.453 89.8381 112.765 90.3946L112.453 90.6194L111.904 91.0153L111.388 90.5656L110.894 90.1159L111.195 89.5269L114.776 82.6315L114.798 82.588L114.819 82.5452C115.292 81.8391 116.012 81.4963 116.518 81.2817C116.808 81.1535 117.002 81.0894 117.195 80.9928C117.368 80.9073 117.443 80.8432 117.475 80.8107C117.507 80.779 117.561 80.6927 117.647 80.532C117.722 80.3721 117.798 80.1789 117.905 79.9438C118.098 79.4934 118.367 78.8834 118.808 78.3693L119.346 77.759C120.615 76.3562 122.142 74.9963 123.465 73.6577C125.002 72.0944 126.368 70.4775 127.164 68.5607L127.186 68.5072L127.217 68.4643L129.379 64.6522L130.917 65.4125Z" fill="#F8F7F5"/>
<path d="M122.776 49.1578C121.733 52.5308 119.819 55.7111 118.378 58.7308L118.163 59.1698L117.679 59.2234C117.464 59.2448 117.055 59.2341 116.744 58.9021C116.442 58.5809 116.454 58.1954 116.475 58.0348C116.497 57.8635 116.55 57.7029 116.582 57.6172C116.604 57.5636 116.625 57.5208 116.636 57.4779C116.658 57.4458 116.658 57.4351 116.668 57.4244L116.744 57.221C116.937 56.7498 117.195 56.3108 117.41 55.936C117.658 55.4863 117.862 55.1222 117.98 54.7474L118.184 54.0299C118.669 52.2309 119.174 49.586 119.529 46.909C119.905 44.0392 120.099 41.2444 119.948 39.4883L119.916 39.1563C119.84 38.5888 119.626 37.957 119.357 37.2503C119.163 36.747 118.927 36.1902 118.733 35.6441L118.561 35.0979C117.937 32.8813 117.851 32.2496 117.077 30.5791L116.701 29.7867C116.485 29.3476 116.314 28.8444 116.163 28.4375C116.045 28.1055 115.937 27.8164 115.808 27.5701L115.679 27.3345C115.324 26.7456 114.851 26.3708 114.249 26.0067C113.689 25.6748 112.819 25.2464 112.066 24.7003C109.065 22.5373 105.796 20.3421 102.355 18.404C98.9147 16.4658 95.3116 14.7739 91.6665 13.596L90.9565 13.3711C87.0212 12.1825 83.9564 11.9791 79.9018 12.4609L79.0742 12.568C78.1816 12.6965 77.4719 12.9321 76.7514 13.2105C76.0416 13.4782 75.2675 13.7995 74.3964 13.9922C73.3426 14.2278 72.0522 14.2599 70.9123 14.3134C69.8692 14.3562 68.9443 14.4098 68.2024 14.5918L67.9013 14.6775C67.8153 14.7096 67.6325 14.806 67.3529 15.063C67.0733 15.3093 66.7829 15.6305 66.4496 15.9839C65.9334 16.5621 65.2882 17.3117 64.7075 17.8043L64.4602 18.0077C63.6644 18.586 62.7289 19.0465 61.8901 19.4748C61.019 19.9031 60.2233 20.31 59.5459 20.8026C59.0189 21.1988 58.1909 21.959 57.2338 22.9335C56.2768 23.9079 55.1907 25.0859 54.1368 26.3065C53.0937 27.5058 52.1044 28.7266 51.341 29.776C50.5451 30.8682 50.0505 31.7035 49.9 32.1532C48.6525 36.0081 48.0074 40.1629 48.2224 44.1784L48.2547 44.6389C48.3407 45.6883 48.5343 46.7056 48.6848 47.862C48.8354 49.0506 48.9214 50.3142 48.6956 51.6313L48.6418 51.899C48.545 52.4023 48.2331 53.1197 48.0396 53.6338C47.9321 53.9121 47.8353 54.1692 47.7815 54.3726C47.7493 54.5011 47.7385 54.576 47.7278 54.6189C47.7708 54.6724 47.8138 54.7259 47.9213 54.8223C48.1041 55.0044 48.502 55.3685 48.6418 55.9252L48.7063 56.2251C48.8246 56.9104 48.6956 57.4994 48.5773 57.9491C48.502 58.2275 48.4483 58.3881 48.4052 58.5916C48.3837 58.6772 48.373 58.7522 48.3622 58.8057V59.0413C48.416 59.2448 48.5558 59.5339 48.7816 59.9408C48.9967 60.3263 49.3408 60.8831 49.5021 61.3972C49.9 62.6714 50.1258 63.6244 50.4054 64.556C50.6742 65.4983 51.0076 66.3978 51.6097 67.565L51.9001 68.1004C53.3626 70.7668 55.0401 72.6835 56.6639 74.8465C58.2877 77.0096 59.7824 79.3333 60.7394 82.7066L60.9223 83.3914L60.976 83.6059C61.0083 83.7342 61.0406 83.8949 61.0406 84.0445C61.0406 84.1949 61.019 84.5267 60.761 84.8156C60.4599 85.1481 60.062 85.1798 59.7932 85.1481L59.363 85.0943L59.148 84.7198C58.1479 82.9314 57.3414 81.1747 56.2446 79.6009L56.0187 79.2906C54.4379 77.1488 52.7496 75.4783 51.0721 73.5401C49.5344 71.7626 48.0826 69.8245 47.018 67.308L46.803 66.794C46.0072 64.7381 45.8889 63.2817 45.9427 61.8897C45.975 60.6583 46.1255 59.6624 46.061 58.3025L46.018 57.6921C45.8781 56.1287 45.5985 54.5225 45.3297 52.8413C45.0931 51.385 44.8781 49.8752 44.8028 48.3546L44.7813 47.7014C44.7491 46.1809 44.7813 42.9898 44.9964 39.8952C45.1039 38.3532 45.2544 36.8112 45.4803 35.5048C45.6954 34.252 45.9857 33.0634 46.4481 32.3459L46.6847 31.9818C47.2654 31.1253 47.9751 30.2471 48.6633 29.3905C49.4698 28.3946 50.2548 27.4309 50.8785 26.4993L51.1366 26.0924C51.728 25.1715 52.1474 24.3577 52.7066 23.4475C53.3196 22.4302 54.0186 21.4129 55.1047 20.2886L55.567 19.8389C57.9113 17.5794 61.5137 15.2879 65.3312 13.4675C69.4068 11.5186 73.8372 10.0623 77.4181 9.7839L78.8268 9.68755C92.5807 8.92724 102.614 12.7608 112.238 20.9097V20.8668L113.679 22.1518C116.109 24.3255 117.4 25.6533 118.335 27.1847C119.249 28.6838 119.809 30.3649 120.852 33.1169L121.669 35.205C122.454 37.2182 123.109 38.9957 123.454 40.8054C123.927 43.2682 123.808 45.7954 122.776 49.1578Z" fill="#F8F7F5"/>
<path d="M101.302 44.6181C101.151 40.3669 99.9252 36.0087 96.936 33.5245L96.6347 33.2889C96.0432 32.8284 94.8284 32.0361 93.6128 31.2972C92.4195 30.5797 91.118 29.8515 90.3874 29.5946C88.7099 28.995 86.6127 28.5452 84.5154 28.3738C82.5589 28.2133 80.5371 28.2989 78.8271 28.77L78.483 28.8772C77.0528 29.3269 74.7085 30.5047 72.6008 31.854C71.547 32.5286 70.5254 33.2567 69.6974 33.9849C68.8909 34.6809 68.1704 35.452 67.8371 36.2015L67.7511 36.405C67.3854 37.3901 67.5467 38.3217 67.7402 39.0713C67.9554 39.9386 68.1489 40.4955 68.1059 41.1058C68.0736 41.6198 67.8048 42.1874 67.4284 42.9691C67.1166 43.6223 66.7079 44.4575 66.6434 45.3248V45.4961C66.6112 46.1387 66.7509 46.824 66.88 47.4129C67.0091 48.0447 67.1274 48.5587 67.1488 49.0191L67.1811 49.5652C67.2241 50.861 67.2026 52.2316 67.2026 53.6343C67.2026 55.2192 67.2241 56.8468 67.3962 58.3674L67.4284 58.6029C67.6005 59.7915 68.0844 60.7017 68.6113 61.5155C69.2028 62.4257 69.7404 63.0897 70.2244 64.0212C70.719 64.9742 71.1599 65.9915 71.6008 67.0516C72.0524 68.0903 72.5041 69.1719 73.0095 70.1999C73.4719 71.1529 74.0525 72.213 74.6333 73.2945C75.214 74.376 75.8054 75.5004 76.3431 76.6354C77.4291 78.9163 78.2141 81.1003 78.2141 82.8998C78.2141 83.0922 78.1711 83.2853 78.0958 83.5743C78.0528 83.7667 77.9884 84.035 77.9561 84.324L77.9346 84.624C77.9346 85.9303 77.9991 87.3862 78.0744 88.8959C78.1497 90.4064 78.225 91.9691 78.2464 93.5224C78.2787 96.4563 78.1174 99.2081 77.3754 101.35L77.2141 101.768C76.956 102.421 76.5474 103.031 76.0742 103.738C75.6334 104.423 75.1172 105.194 74.8053 106.05L76.2571 106.918C78.8056 104.112 80.623 100.396 81.3115 96.8307L81.3973 96.328C81.8274 93.8865 82.1073 90.5987 81.6231 88.0717L81.5046 87.5469L81.4291 87.3117C81.2463 86.7655 80.9028 86.1979 80.677 85.7799C80.3972 85.2772 80.2358 84.9233 80.1817 84.6668V84.5702L80.1714 84.5164C80.1817 84.4419 80.2032 84.3557 80.2573 84.2171C80.3217 84.0239 80.429 83.8316 80.5689 83.5632C80.7844 83.1349 81.1389 82.4818 81.1604 81.7329V81.5824C81.1286 80.8541 80.8058 80.2548 80.5475 79.8052C80.2787 79.3555 80.0959 79.0876 79.9774 78.8092L79.9345 78.6914C79.7842 78.2309 79.7087 77.6955 79.6125 77.0316C79.5259 76.4962 79.4293 75.8752 79.225 75.2755L79.139 75.0185C78.526 73.4551 77.612 71.8917 76.7194 70.3605C75.9344 69.0005 75.171 67.6513 74.5795 66.2485L74.3429 65.6382C73.9773 64.6744 73.7515 63.9891 73.5471 63.4216C73.3536 62.8541 73.1815 62.3936 72.945 61.9439C72.6008 61.2585 72.1385 60.6268 71.3212 59.6523L70.3749 58.5601C70.0845 58.2174 69.9555 57.9712 69.891 57.7784C69.8265 57.6071 69.8157 57.4251 69.8372 57.2108C69.8695 56.9432 69.9232 56.729 69.9985 56.3221C70.0522 56.0437 70.0953 55.7224 70.1061 55.3691V54.9942C70.0845 54.491 69.9555 53.9877 69.8479 53.6023C69.7619 53.281 69.7082 53.0347 69.6759 52.8206L69.6544 52.6171C69.6329 52.0174 69.7619 51.3749 69.9017 50.5718C70.0092 49.9079 70.1383 49.1476 70.1168 48.3659L70.0953 48.034C70.0415 47.338 69.7942 46.6741 69.6221 46.1815C69.4394 45.6246 69.3211 45.2499 69.3318 44.8965L69.3533 44.7466C69.3855 44.5753 69.4501 44.3611 69.5684 44.0827C69.7297 43.6972 69.9017 43.3652 70.1061 42.8941C70.2996 42.4658 70.5147 41.9411 70.6222 41.3842C70.9341 41.652 71.1814 42.0053 71.4395 42.4229C71.6975 42.862 71.9019 43.301 72.1707 43.815C72.4395 44.3075 72.7407 44.8323 73.1385 45.3035L73.3967 45.5818C73.9881 46.2243 74.6332 46.749 75.2032 47.2416C75.8591 47.8198 76.4614 48.3874 76.9668 49.1476L77.1388 49.4046C77.9561 50.7003 78.3217 51.9639 78.8056 53.3773C79.311 54.8658 79.9345 56.4291 81.3647 57.9818C81.5158 58.1425 81.6772 58.2496 81.806 58.3246C81.9133 58.3781 82.0532 58.453 82.0961 58.4744C82.1391 58.4959 82.1605 58.5066 82.1717 58.5172C82.279 58.7422 82.3545 59.0634 82.3863 59.4917C82.4293 59.9308 82.4189 60.434 82.3975 60.9801C82.3649 61.9974 82.2575 63.2717 82.3975 64.214L82.4507 64.5138C82.6018 65.2205 82.8705 65.938 83.1607 66.634C83.5153 67.4799 83.8595 68.2402 84.1934 69.0755C84.8382 70.7353 85.1498 72.2022 84.6235 73.4979L84.5265 73.7228L84.5695 73.9584L85.3223 78.6057L85.9671 78.4987L86.9998 78.7128L87.0539 78.52V78.4451C87.2041 76.9781 87.3011 75.5967 87.5484 74.2261C87.9785 71.8382 88.1932 69.7929 89.6234 68.2509L90.2475 67.6085C90.8604 66.9874 91.4305 66.452 92.0434 65.8524C92.8392 65.06 93.6351 64.2033 94.4515 63.0468L95.5169 61.537C96.6347 59.9093 97.8932 58.0354 98.7423 56.5791L98.9036 56.3007C100.517 53.3667 101.452 48.912 101.302 44.6181ZM67.4929 45.7211V45.6139C67.4929 45.7103 67.4929 45.8174 67.5145 45.9137C67.5037 45.8495 67.4929 45.7853 67.4929 45.7211ZM84.3866 54.3411C83.8706 53.8806 83.4509 53.3131 83.0319 52.6813C82.5588 51.9531 82.0421 51.0323 81.4506 50.2613L81.1819 49.9293C80.8162 49.501 80.2358 49.1155 79.8272 48.8478C79.6014 48.6979 79.4185 48.5694 79.268 48.4516C79.182 48.3874 79.139 48.3446 79.1067 48.3124L79.0744 48.2803L79.01 48.1732C78.8917 47.9269 78.8701 47.6485 78.7411 47.0595C78.6335 46.4706 78.4185 45.7746 77.7948 45.0785L77.6657 44.9501L77.44 44.7466C76.9023 44.2969 76.2785 44.072 75.8269 43.9114C75.3107 43.7186 75.0419 43.6115 74.8914 43.4723L74.8268 43.4188L74.7623 43.3332C74.6225 43.1189 74.4827 42.7549 74.3321 42.1766C74.1816 41.6091 74.0095 40.806 73.7837 40.1206C73.5471 39.4354 73.1922 38.6644 72.5255 38.1397C72.1385 37.8505 71.7083 37.6578 71.2137 37.5829C71.3319 37.3687 71.4932 37.1438 71.6761 36.9189C72.1815 36.2978 72.8482 35.6876 73.6224 35.1092C75.171 33.9528 77.0313 32.9998 78.3755 32.4965C82.5477 30.9438 87.9674 31.3507 92.0108 33.2675L92.1078 33.321C92.3225 33.4388 92.4195 33.578 92.5379 33.7601C92.6564 33.9635 92.9036 34.4668 93.3552 34.8416L93.4951 34.9487C93.8171 35.1842 94.1828 35.3235 94.4953 35.4198C94.667 35.4841 94.8498 35.5376 95.0216 35.5804C95.183 35.6233 95.334 35.6661 95.4843 35.7089C95.7745 35.8053 95.9358 35.8802 96.0328 35.9552C96.0861 35.998 96.1084 36.0302 96.1187 36.1265V36.2015C96.1187 36.2015 96.0758 36.3193 96.0328 36.405C95.947 36.587 95.807 36.7904 95.6027 37.0475C95.5057 37.1652 95.4087 37.2938 95.3014 37.4223C95.1941 37.5614 95.0756 37.7007 94.9683 37.8399C94.8069 38.0433 94.6455 38.2789 94.4953 38.5252L94.3657 38.7822C94.0326 39.4675 93.8608 40.1528 93.6994 40.7203C93.5381 41.32 93.3767 41.8233 93.0865 42.3159L92.9784 42.4979C92.6993 42.9155 92.3225 43.2796 91.8606 43.6972C91.4305 44.0934 90.9137 44.5538 90.4621 45.1214L90.2793 45.3677C89.8603 45.9673 89.5487 46.5991 89.2791 47.1666C89.0645 47.6164 88.8816 48.0126 88.6662 48.3874L88.4404 48.7622C87.7527 49.8223 86.9887 50.8503 86.204 51.8889C85.6022 52.692 84.9781 53.5058 84.3866 54.3411ZM98.3336 48.5694C98.0005 50.7753 97.3446 52.8848 96.3341 54.5338L96.1187 54.8551C95.7856 55.3583 95.28 55.9045 94.7099 56.5363C94.2472 57.0503 93.7313 57.6392 93.3655 58.2281L93.2264 58.4851C92.8822 59.1598 92.774 59.8665 92.6778 60.4019C92.5809 60.9159 92.5053 61.2692 92.3551 61.5583L92.2907 61.6761C92.1396 61.9117 91.882 62.2009 91.5052 62.5542C91.1292 62.9076 90.7094 63.2717 90.2475 63.6571C89.3761 64.396 88.3442 65.2741 87.7956 66.1522V66.1736L87.0642 67.4264C87.0428 67.3729 87.0324 67.3086 86.9998 67.2551C86.7955 66.6876 86.3757 66.2378 86.1499 65.9808C86.0108 65.8202 85.9242 65.7131 85.8709 65.6167C85.8383 65.5739 85.828 65.5418 85.8168 65.5311V65.5096C85.7628 65.092 85.8812 64.5566 86.0538 63.7536C86.1825 63.111 86.3439 62.3294 86.3225 61.5477L86.301 61.205L86.2684 60.9801C86.1611 60.4554 85.8924 59.8772 85.6984 59.4917C85.634 59.3632 85.5696 59.224 85.5052 59.1169C85.5052 59.1062 85.537 59.0955 85.5481 59.0848C85.6666 58.9777 85.8168 58.8492 85.9456 58.7314C86.0752 58.6137 86.2255 58.4637 86.3543 58.2924L86.6556 57.8533C87.0102 57.3073 87.5373 56.4827 88.0318 55.6689C88.3545 55.1335 88.6773 54.5874 88.946 54.1269C89.1829 53.6879 89.4087 53.2489 89.5049 52.9704L89.5701 52.7456C89.6989 52.2209 89.6989 51.6962 89.6989 51.3321C89.6989 50.8395 89.7204 50.6575 89.7744 50.5718C89.7848 50.5611 89.8277 50.5076 89.9247 50.4005C90.0432 50.272 90.1934 50.1114 90.3659 49.94C90.6879 49.6295 91.118 49.2011 91.3549 48.88L91.7421 48.3338C92.1182 47.777 92.4735 47.2095 92.8178 46.6848C93.2908 45.9673 93.7527 45.3035 94.3124 44.7145C94.6026 44.404 94.9572 44.1577 95.4302 43.7614C95.8714 43.408 96.3874 42.9584 96.7746 42.3587L96.9686 42.0374C97.3446 41.3414 97.4631 40.7203 97.5275 40.1528C97.5378 40.1635 97.5378 40.1742 97.5489 40.1956C97.925 40.8488 98.1945 41.3307 98.2907 41.834L98.3447 42.2087C98.6461 44.1148 98.6564 46.3635 98.3336 48.5694Z" fill="#F8F7F5"/>
</g>
<defs>
<clipPath id="clip0_2001_883">
<rect width="166" height="190" fill="white"/>
</clipPath>
</defs>
</svg>
