<svg width="331" height="311" viewBox="0 0 331 311" fill="none" xmlns="http://www.w3.org/2000/svg">
<g clip-path="url(#clip0_146_910)">
<path d="M299.572 158.03L298.549 159.717C293.799 167.431 286.674 177.375 281.29 184.788C275.577 192.653 268.392 198.499 261.174 203.953C254.321 209.075 247.525 213.806 241.51 219.592L240.338 220.767C233.574 227.578 226.567 239.178 223.922 250.66C221.305 262.02 223.079 272.506 232.58 278.592L245.12 283.625L249.719 284.529L246.08 287.753L244.969 288.749L243.826 288.296C241.541 287.873 239.527 288.054 237.091 288.205C234.926 288.357 232.52 288.446 229.755 287.844L228.521 287.512C221.305 285.403 216.945 278.111 214.66 270.88C212.345 263.557 211.774 255.361 212.796 250.088L213.277 247.826C215.713 236.799 219.772 229.868 225.425 224.022C228.401 220.948 231.8 218.206 235.497 215.373C239.256 212.51 243.284 209.557 247.794 205.941L249.028 204.917C251.853 202.476 254.05 200.005 256.184 197.384C258.289 194.822 260.423 192.02 262.95 189.157L264.031 187.952C267.641 184.035 273.863 178.339 279.456 172.885C282.284 170.113 284.989 167.341 287.214 164.809C289.499 162.248 291.184 160.018 292.056 158.301L292.867 156.643C296.746 148.055 298.669 136.123 299.031 123.828C299.363 111.564 298.16 99.2394 295.964 90.0186L295.513 88.2107C294.55 84.5645 293.559 83.0579 292.387 81.7622C291.424 80.6775 289.651 79.1405 287.757 76.7902L286.914 75.7355C285.349 73.6263 284.118 71.2757 283.035 69.1061C281.921 66.8763 280.93 64.8875 279.727 63.1398C278.405 61.2112 275.608 58.4993 272.36 55.6065C270.798 54.1901 269.144 52.7739 267.61 51.4481C266.107 50.1222 264.664 48.8868 263.491 47.832C254.65 39.8467 245.78 32.2532 236.128 25.7746C226.507 19.2657 216.073 13.8718 204.136 10.286L201.821 9.62306C196.83 8.23693 193.913 8.17667 191.147 8.41772C188.411 8.65879 185.103 9.32173 180.293 9.32173C176.925 9.32173 173.707 8.71907 170.641 8.23693C167.934 7.78493 165.258 7.3932 162.372 7.3932H161.139C103.258 9.53266 57.5546 43.9449 43.8738 92.6703L43.2423 95.0209C42.2502 98.9079 42.2502 102.765 42.4907 106.833C42.7012 110.811 43.2123 115.24 42.9718 119.76C42.7012 125.154 42.0997 131.181 41.4984 136.876L40.8971 142.39C40.6565 144.68 40.025 147.031 39.5742 149.02C39.0929 151.129 38.7623 152.967 38.8826 154.745L38.9426 155.559C39.1831 157.487 39.8147 159.596 40.5963 162.007C41.4383 164.629 42.4607 167.582 42.8815 170.444L43.062 171.77C43.4228 174.844 43.4828 177.918 43.6031 180.78C43.7536 184.095 43.9641 187.259 44.7457 190.393L45.257 192.321C50.9398 212.089 67.4471 229.084 83.9544 243.638L101.695 255.993L99.7401 260.331C89.6374 257.86 79.354 251.654 71.2959 245.868L69.7323 244.692C52.9544 232.308 39.0629 212.601 35.2143 192.984L34.8535 191.086C33.9514 185.601 33.7409 180.087 33.5604 174.723C33.4401 169.962 33.3198 165.382 32.899 160.802L32.6885 158.873C32.1772 154.654 31.2151 150.737 30.4033 146.398C29.5915 142.149 28.9602 137.659 29.3209 132.928V132.718C32.4178 113.553 35.6653 89.9584 42.0697 71.1251L42.7612 69.2569C50.0679 49.821 67.2668 32.2833 88.0135 19.778C109.482 6.82066 135.1 -0.953726 158.403 0.191338L159.515 0.251604C162.131 0.432405 164.868 0.824136 167.484 1.18574C170.55 1.6076 173.467 1.9692 176.173 2.02947H178.909C192.29 1.9692 201.19 -0.260661 216.404 4.862L219.08 5.82626C246.834 15.951 267.97 35.3568 283.635 57.3242L286.823 61.7537C294.43 72.1196 302.639 82.9072 306.067 95.7139L306.518 97.5519C310.938 116.024 309.315 140.823 299.572 158.03Z" fill="#B4997B"/>
<path d="M87.7732 279.374L86.5706 281.395C86.0896 282.208 85.3078 282.81 84.2854 282.932C83.4436 283.053 82.752 282.781 82.4212 282.629C82.0304 282.449 81.6997 282.237 81.5191 282.148C81.3689 282.057 81.3086 282.028 81.3086 282.028C74.0022 279.285 65.3426 274.101 59.1785 269.973C47.6324 262.261 37.2289 253.28 28.7799 243.066C20.3007 232.849 13.7158 221.459 9.74678 208.833L9.02516 206.363C2.77102 184.275 -1.01756 166.647 0.365564 143.203L0.545976 140.793C1.05713 135.127 2.19972 129.643 3.49264 124.279C4.99603 118.042 6.67984 112.166 8.00284 106.079L8.36365 104.391L10.0475 104.181C10.8894 104.09 11.9718 104.241 12.7536 105.145C13.4151 105.898 13.5354 106.772 13.5654 107.194C13.5955 107.646 13.5354 108.098 13.5053 108.369C13.4752 108.52 13.4452 108.67 13.4452 108.761C13.4452 108.791 13.4452 108.851 13.4151 108.851V108.911C12.9039 114.667 12.7837 121.146 12.0019 127.202C11.7914 128.98 11.7012 130.788 11.7012 132.686C11.7012 136.152 12.0019 139.798 12.3327 143.565C12.7536 148.868 13.2647 154.443 12.8438 159.626L12.7235 160.65C12.4228 163.422 11.0698 166.978 10.0775 169.871C9.56639 171.408 9.11535 172.854 8.84475 174.12C8.63427 175.084 8.57414 175.868 8.57414 176.44L8.63428 176.952L8.69441 177.193C8.81467 177.465 9.02516 177.766 9.53631 178.369C10.1377 179.031 11.2201 180.207 11.7012 181.924L11.8516 182.587C12.1522 184.154 12.1522 185.691 12.0921 186.987C12.032 188.584 11.9718 189.819 12.0921 190.995L12.4228 193.044C13.2046 197.533 14.4374 200.245 16.0009 202.716C16.9631 204.193 18.0456 205.579 19.3685 207.297C20.6915 208.954 22.195 210.882 23.8187 213.263C25.8331 216.156 27.577 219.259 29.2609 222.213C30.9146 225.137 32.5082 227.968 34.3424 230.59L34.5229 230.831C40.8673 239.811 49.5269 248.7 57.9459 256.535L61.1632 259.518C68.7704 266.328 76.8587 272.626 85.7288 278.14L87.7432 279.374H87.7732Z" fill="#B4997B"/>
<path d="M320.35 186.987C319.959 193.587 319.807 199.975 317.673 206.875C316.62 210.31 313.765 217.03 310.606 223.388C309.013 226.582 307.33 229.746 305.707 232.399C304.113 235.019 302.459 237.34 300.954 238.726C299.752 239.811 298.28 240.535 297.198 241.108C295.995 241.74 295.152 242.192 294.581 242.734C293.77 243.518 292.956 244.993 291.965 247.013C291.062 248.851 290.011 251.171 288.897 252.828C287.846 254.396 286.612 255.722 285.5 256.867C284.598 257.769 283.818 258.553 283.124 259.338L282.433 260.151C282.433 260.151 282.253 260.483 281.921 261.387C281.652 262.14 281.261 263.285 280.359 264.37C277.502 267.986 273.383 270.336 269.233 272.143C265.325 273.832 260.934 275.217 257.446 276.483L253.719 280.069V272.716L254.861 272.294C257.869 269.492 261.686 266.99 265.085 264.611C268.721 262.049 271.94 259.578 273.985 256.776L274.434 256.083C274.886 255.299 275.308 254.336 275.848 253.191C276.451 251.834 277.262 250.057 278.405 248.851L278.736 248.551C279.516 247.856 280.51 247.374 281.141 247.013C282.044 246.561 282.644 246.229 283.064 245.837L284.178 244.844C289.379 240.023 288.808 238.093 292.836 231.192L294.01 229.233C296.835 224.653 300.143 220.134 303 215.795C306.338 210.672 309.224 205.549 310.818 199.884V199.794L310.878 199.734L315.659 186.053L320.35 186.987Z" fill="#B4997B"/>
<path d="M330.422 158.995L330.213 159.718C329.551 161.617 328.077 162.671 327.085 163.304C326.725 163.545 325.943 163.967 325.792 164.057C325.643 164.178 325.551 164.238 325.491 164.268C325.463 164.359 325.311 164.781 325.191 165.805C325.1 166.89 325.1 168.186 325.1 169.662C325.1 171.018 325.071 172.585 324.829 173.911C324.649 175.086 324.138 176.985 322.395 177.919C321.792 178.25 321.161 178.371 320.65 178.431C320.139 178.491 319.598 178.491 319.056 178.461C318.005 178.401 316.802 178.25 315.659 178.069C314.517 177.888 313.345 177.647 312.352 177.467C311.84 177.376 311.389 177.286 311.029 177.226L310.097 177.075L305.467 176.502L308.592 173.067L309.255 172.374C309.946 171.681 310.729 170.898 311.569 170.114C312.683 169.06 313.885 167.914 314.997 166.769C316.139 165.624 317.133 164.509 317.853 163.485C318.607 162.4 318.907 161.647 318.967 161.225C319.027 160.954 318.967 160.652 318.787 160.02C318.636 159.537 318.216 158.422 318.276 157.247C318.576 150.407 319.447 144.019 319.056 137.57L318.967 136.305C318.696 133.201 317.793 130.158 316.771 126.873C315.81 123.679 314.668 120.214 314.185 116.658L318.756 115.302L325.823 130.64V130.73L325.912 130.82C326.994 133.894 328.559 139.439 329.642 144.953C330.182 147.725 330.602 150.528 330.753 152.998C330.904 155.138 330.873 157.247 330.422 158.995Z" fill="#B4997B"/>
<path d="M185.133 309.628L177.947 310.864H177.767L177.557 310.893C172.655 310.924 167.394 311.015 162.222 309.899L162.793 305.107H163.334C166.01 305.047 167.484 304.054 168.566 302.697C169.919 301.039 170.731 298.78 171.843 295.978L174.399 289.56L176.384 296.189C177.677 300.407 180.563 304.506 184.893 304.838L185.133 309.628Z" fill="#B4997B"/>
<path d="M235.648 172.043L233.934 175.237C231.378 179.968 227.921 184.036 224.462 187.863C221.396 191.268 218.359 194.432 215.683 197.807L214.54 199.283C199.085 219.894 189.133 250.448 192.561 275.279L192.922 277.659L193.072 278.323C194.575 285.193 200.228 288.809 207.384 293.661L210.541 295.8L207.264 297.758L206.482 298.21L205.58 298.061C199.717 296.945 193.793 293.661 189.344 289.321C185.164 285.284 182.007 280.071 181.646 274.587L181.586 273.471C181.586 268.289 181.857 260.875 182.638 253.554C183.42 246.291 184.683 238.848 186.788 233.787C187.75 231.465 189.434 229.356 190.757 227.638C192.23 225.771 193.252 224.354 193.643 223.089L193.884 222.215C194.094 221.31 194.245 220.316 194.425 219.141C194.635 217.695 194.876 215.947 195.387 214.29L195.778 213.175C197.732 207.69 201.22 203.14 204.889 199.072C206.873 196.903 208.948 194.793 210.902 192.774C212.887 190.725 214.751 188.737 216.405 186.718L216.826 186.175C217.758 184.909 218.389 183.584 219.021 182.107C219.742 180.48 220.524 178.521 221.697 176.623L222.238 175.839C223.471 174.092 225.033 172.555 226.358 171.199C227.95 169.572 229.275 168.156 230.146 166.619L230.417 166.106C230.989 164.901 231.318 163.666 231.649 162.249C232.009 160.713 232.4 158.784 233.212 156.886L233.574 156.072C234.536 154.234 235.828 152.697 236.702 151.492C237.782 150.045 238.476 148.84 238.656 147.333L238.865 145.375C240.85 125.879 237.031 105.659 225.456 89.0255L224.282 87.3682C221.426 83.4809 217.517 80.1662 213.157 76.9419C210.962 75.345 208.737 73.8081 206.452 72.2413C204.347 70.7948 202.243 69.3182 200.228 67.8115C181.375 64.286 165.62 60.0975 147.038 63.171L145.204 63.5025C145.204 63.5025 145.113 63.5025 144.993 63.5629C144.813 63.593 144.602 63.6834 144.302 63.7739C143.76 63.9545 143.039 64.1956 142.197 64.497C140.543 65.0695 138.408 65.8531 136.334 66.6364C134.229 67.4199 132.124 68.2335 130.5 68.8664C129.688 69.1976 128.967 69.4991 128.456 69.71C127.914 69.9511 127.674 70.0415 127.674 70.0716C126.261 70.9153 123.134 73.6274 119.886 76.6708C117.09 79.3225 114.444 82.0043 113.121 83.5413L112.61 84.1439C110.986 86.2231 109.723 88.3925 108.491 90.713C107.589 92.4003 106.656 94.2385 105.604 96.0766L104.552 97.9148C103.74 99.2105 102.447 100.536 101.635 101.44C100.673 102.555 100.192 103.309 100.041 103.911C99.7408 105.147 99.8311 106.352 100.041 107.829C100.252 109.215 100.673 111.083 100.673 112.981C100.643 115.302 100.613 117.11 100.613 118.767C100.613 121.811 100.733 124.342 101.214 128.53L101.304 129.585C101.725 134.677 100.763 139.137 99.6205 143.265C98.538 147.213 97.3653 150.648 96.764 154.264L96.5535 155.861C96.343 157.79 96.734 159.025 97.3954 160.321C97.7864 161.044 98.1772 161.707 98.7185 162.611C99.2295 163.485 99.8008 164.509 100.282 165.685L101.034 167.643C101.816 169.662 102.597 171.832 103.409 174.092C104.522 177.135 105.634 180.269 106.837 183.373C109.272 189.64 111.918 195.426 114.925 199.283L116.879 201.844C118.593 204.195 119.646 205.822 120.518 207.57C121.63 209.709 122.532 212.18 124.306 216.037L124.607 216.67C125.359 218.026 126.351 219.051 127.614 220.617C128.967 222.305 130.41 224.414 130.801 227.578L130.861 228.061C130.921 229.175 130.861 230.291 130.771 231.134C130.681 232.218 130.681 232.911 130.771 233.395C130.801 233.424 130.891 233.575 131.402 234.148C131.823 234.66 132.575 235.504 133.026 236.71L133.206 237.22L133.628 238.937C137.656 256.657 129.809 272.205 120.969 286.43C120.548 287.091 119.976 288.056 119.315 288.96C118.654 289.865 117.812 290.887 116.699 291.611L109.483 296.432L113.211 288.568C114.203 286.459 115.256 284.409 116.278 282.422C117.3 280.432 118.293 278.474 119.195 276.545C121.029 272.628 122.502 268.77 123.224 264.492L123.404 263.136C123.825 259.58 124.066 253.643 123.885 247.737C123.795 244.393 123.585 241.107 123.224 238.336C122.833 235.473 122.352 233.395 121.781 232.31L121.54 231.826C121.239 231.374 120.879 230.924 120.398 230.291C119.766 229.476 119.014 228.422 118.473 226.976L118.173 226.041C117.571 223.933 117.541 221.973 117.481 220.346C117.421 218.659 117.361 217.303 116.91 215.886L116.699 215.284C115.767 212.964 114.083 211.125 112.008 209.167C110.295 207.54 108.13 205.732 106.416 203.562L105.694 202.628C103.83 199.916 100.973 194.402 98.4177 188.978C96.2227 184.216 94.118 179.244 93.1257 175.96L92.7649 174.664C88.766 158.302 91.2615 148.96 92.4041 134.075L92.4644 132.628C92.5846 129.283 92.2238 125.758 91.8931 121.931C91.502 117.682 91.1713 113.072 91.7728 108.431L91.8628 107.949C91.9833 107.407 92.1936 106.804 92.4041 106.232C92.7349 105.388 93.1257 104.363 93.607 103.218C94.5691 100.928 95.8319 98.1258 97.1548 95.3232C99.7108 89.7787 102.567 83.963 103.619 82.3659L104.341 81.2511C112.189 69.8005 125.629 61.9959 140.333 57.6869C155.517 53.2573 172.355 52.4134 186.457 55.3666L187.87 55.6678C202.213 59.073 216.585 68.8964 227.65 80.8895C239.047 93.244 247.314 108.341 248.277 121.871L248.368 123.709C249.179 141.488 243.706 156.584 235.619 172.043H235.648Z" fill="#B4997B"/>
<path d="M299.543 184.155C296.326 191.628 293.167 199.493 289.531 207.026L287.937 210.25C286.703 212.661 284.509 216.729 282.012 220.556C280.781 222.455 279.427 224.352 278.073 225.95C276.931 227.335 275.699 228.632 274.405 229.536L273.834 229.897C272.271 230.862 270.166 231.434 268.692 231.887C267.85 232.127 267.159 232.339 266.618 232.548C266.016 232.791 265.776 232.972 265.747 233C264.813 233.876 263.159 235.834 261.417 237.973C260.545 239.058 259.672 240.112 258.891 241.107L256.935 243.607C255.584 245.296 254.65 247.073 253.238 249.212C252.096 250.99 250.713 252.89 248.788 254.456L247.917 255.089L246.383 256.203L244.94 254.938L243.555 253.672L244.398 252.015L254.41 232.608L254.47 232.488L254.53 232.368C255.855 230.381 257.869 229.416 259.283 228.812C260.094 228.451 260.634 228.271 261.177 227.999C261.657 227.758 261.868 227.578 261.957 227.487C262.048 227.395 262.199 227.155 262.439 226.702C262.648 226.25 262.859 225.709 263.159 225.045C263.702 223.78 264.453 222.063 265.687 220.616L267.19 218.899C270.738 214.951 275.008 211.124 278.705 207.358C283.006 202.958 286.823 198.408 289.048 193.014L289.108 192.864L289.199 192.743L295.244 182.016L299.543 184.155Z" fill="#B4997B"/>
<path d="M276.782 138.413C273.865 147.905 268.512 156.855 264.482 165.353L263.882 166.588L262.528 166.739C261.928 166.799 260.785 166.769 259.912 165.835C259.071 164.931 259.1 163.846 259.16 163.394C259.22 162.912 259.371 162.46 259.463 162.219C259.523 162.068 259.583 161.948 259.612 161.827C259.672 161.737 259.672 161.706 259.703 161.676L259.912 161.104C260.454 159.778 261.177 158.542 261.777 157.488C262.468 156.222 263.039 155.198 263.371 154.143L263.942 152.124C265.296 147.062 266.707 139.619 267.701 132.085C268.752 124.01 269.295 116.145 268.872 111.203L268.784 110.269C268.572 108.672 267.97 106.894 267.219 104.905C266.678 103.489 266.016 101.922 265.476 100.385L264.993 98.8485C263.251 92.6109 263.011 90.8329 260.845 86.1323L259.792 83.9023C259.191 82.667 258.709 81.2505 258.289 80.1057C257.958 79.1713 257.658 78.3577 257.297 77.6647L256.935 77.0019C255.944 75.3444 254.621 74.2898 252.936 73.2652C251.373 72.3311 248.937 71.1259 246.834 69.5891C238.444 63.5021 229.304 57.3247 219.682 51.8706C210.06 46.4165 199.987 41.6555 189.794 38.3408L187.81 37.7081C176.805 34.3633 168.235 33.7907 156.9 35.1468L154.585 35.448C152.089 35.8096 150.104 36.4725 148.09 37.2561C146.105 38.0093 143.941 38.9133 141.505 39.4558C138.558 40.1188 134.95 40.209 131.763 40.3598C128.846 40.4803 126.26 40.6309 124.186 41.1431L123.344 41.3844C123.103 41.4746 122.592 41.746 121.81 42.4691C121.029 43.1622 120.217 44.0662 119.285 45.0605C117.841 46.6876 116.037 48.7971 114.414 50.1833L113.722 50.7558C111.497 52.383 108.881 53.6787 106.536 54.8839C104.1 56.0894 101.875 57.2345 99.9809 58.6206C98.5077 59.7354 96.1925 61.875 93.5163 64.6172C90.8403 67.3591 87.8035 70.6739 84.8567 74.1091C81.9402 77.484 79.1739 80.9193 77.0392 83.8722C74.814 86.9459 73.4309 89.2962 73.0101 90.5618C69.522 101.41 67.7181 113.102 68.3194 124.402L68.4096 125.697C68.6502 128.65 69.1912 131.513 69.6123 134.767C70.0333 138.112 70.2738 141.668 69.6423 145.374L69.492 146.128C69.2215 147.544 68.3494 149.563 67.8081 151.009C67.5075 151.793 67.237 152.516 67.0865 153.088C66.9963 153.45 66.9663 153.661 66.9362 153.781C67.0565 153.932 67.1768 154.083 67.4775 154.354C67.9886 154.866 69.1012 155.891 69.492 157.458L69.6725 158.301C70.0031 160.23 69.6423 161.887 69.3117 163.153C69.1012 163.936 68.9507 164.388 68.8304 164.961C68.7704 165.202 68.7404 165.413 68.7102 165.564V166.227C68.8607 166.799 69.2515 167.613 69.8828 168.758C70.4843 169.843 71.4464 171.409 71.8975 172.856C73.0101 176.442 73.6414 179.124 74.4232 181.745C75.1748 184.397 76.1069 186.928 77.7908 190.213L78.6026 191.719C82.692 199.222 87.3824 204.616 91.9229 210.703C96.4631 216.79 100.642 223.329 103.318 232.822L103.83 234.749L103.98 235.353C104.07 235.714 104.161 236.166 104.161 236.587C104.161 237.01 104.1 237.944 103.379 238.757C102.537 239.693 101.424 239.782 100.672 239.693L99.4698 239.541L98.8685 238.485C96.0723 233.455 93.8171 228.511 90.75 224.082L90.1187 223.209C85.6988 217.182 80.9781 212.481 76.2874 207.027C71.9877 202.025 67.9286 196.571 64.9518 189.489L64.3503 188.043C62.1253 182.257 61.7945 178.159 61.945 174.242C62.035 170.777 62.4561 167.974 62.2758 164.147L62.1553 162.43C61.7645 158.03 60.9827 153.51 60.2311 148.779C59.5696 144.681 58.9682 140.432 58.7577 136.153L58.6977 134.315C58.6074 130.036 58.6977 121.057 59.299 112.348C59.5996 108.009 60.0206 103.67 60.6519 99.9936C61.2535 96.4679 62.0653 93.1231 63.3582 91.1043L64.0197 90.0797C65.6434 87.669 67.6278 85.1982 69.5522 82.7875C71.8072 79.9851 74.0022 77.273 75.7461 74.6514L76.4679 73.5063C78.1216 70.9149 79.2942 68.6247 80.8578 66.0634C82.5715 63.2007 84.5259 60.3382 87.563 57.1741L88.8558 55.9085C95.4107 49.5504 105.483 43.1018 116.158 37.9792C127.553 32.495 139.941 28.3968 149.954 27.6133L153.893 27.3422C192.35 25.2028 220.403 35.9904 247.314 58.9218V58.8013L251.344 62.4174C258.138 68.5343 261.748 72.271 264.362 76.58C266.918 80.7987 268.481 85.5295 271.398 93.2737L273.683 99.1497C275.879 104.815 277.713 109.817 278.676 114.91C279.998 121.84 279.667 128.952 276.782 138.413Z" fill="#B4997B"/>
<path d="M216.736 125.637C216.315 113.674 212.887 101.41 204.528 94.419L203.686 93.756C202.032 92.4603 198.635 90.2305 195.237 88.1513C191.899 86.1325 188.261 84.0833 186.217 83.3602C181.526 81.6726 175.663 80.407 169.799 79.9249C164.327 79.4729 158.674 79.714 153.893 81.0397L152.931 81.3411C148.932 82.6068 142.377 85.9215 136.484 89.7183C133.537 91.6166 130.681 93.6657 128.366 95.7146C126.111 97.6733 124.096 99.843 123.164 101.952L122.923 102.525C121.901 105.297 122.352 107.919 122.893 110.028C123.495 112.469 124.036 114.036 123.916 115.753C123.825 117.2 123.074 118.797 122.021 120.997C121.149 122.835 120.007 125.185 119.826 127.626V128.108C119.736 129.916 120.127 131.845 120.488 133.502C120.849 135.28 121.179 136.726 121.24 138.022L121.33 139.559C121.45 143.205 121.39 147.062 121.39 151.009C121.39 155.469 121.45 160.049 121.931 164.328L122.021 164.991C122.502 168.336 123.856 170.897 125.329 173.188C126.983 175.749 128.486 177.617 129.839 180.239C131.222 182.921 132.455 185.783 133.688 188.766C134.951 191.689 136.214 194.733 137.627 197.626C138.92 200.307 140.543 203.291 142.167 206.334C143.79 209.378 145.444 212.541 146.948 215.736C149.985 222.154 152.18 228.302 152.18 233.364C152.18 233.905 152.059 234.449 151.849 235.262C151.728 235.805 151.548 236.558 151.458 237.372L151.398 238.216C151.398 241.892 151.578 245.989 151.789 250.239C151.999 254.488 152.21 258.885 152.27 263.256C152.36 271.513 151.909 279.256 149.834 285.283L149.383 286.459C148.662 288.297 147.519 290.014 146.196 292.004C144.963 293.931 143.52 296.101 142.648 298.511L146.707 300.953C153.833 293.058 158.915 282.602 160.839 272.566L161.08 271.152C162.282 264.281 163.064 255.029 161.711 247.918L161.38 246.441L161.17 245.779C160.659 244.242 159.696 242.645 159.065 241.469C158.283 240.054 157.832 239.058 157.682 238.336V238.064L157.652 237.913C157.682 237.704 157.742 237.461 157.893 237.071C158.073 236.527 158.374 235.986 158.764 235.233C159.366 234.025 160.358 232.188 160.418 230.08V229.657C160.328 227.607 159.426 225.921 158.704 224.655C157.953 223.39 157.442 222.636 157.111 221.853L156.99 221.521C156.569 220.225 156.359 218.719 156.088 216.85C155.848 215.344 155.577 213.596 155.006 211.909L154.766 211.185C153.052 206.786 150.496 202.387 148 198.078C145.805 194.251 143.67 190.454 142.017 186.506L141.355 184.789C140.333 182.077 139.701 180.148 139.13 178.551C138.589 176.954 138.108 175.658 137.446 174.393C136.484 172.464 135.191 170.686 132.906 167.944L130.26 164.871C129.448 163.906 129.087 163.213 128.907 162.671C128.727 162.189 128.696 161.676 128.757 161.074C128.847 160.32 128.997 159.718 129.208 158.573C129.358 157.789 129.478 156.885 129.508 155.891V154.836C129.448 153.42 129.087 152.004 128.787 150.919C128.546 150.015 128.396 149.322 128.306 148.719L128.245 148.147C128.185 146.459 128.546 144.651 128.937 142.391C129.238 140.523 129.598 138.383 129.538 136.184L129.478 135.25C129.328 133.291 128.636 131.423 128.155 130.036C127.644 128.47 127.313 127.415 127.343 126.421L127.403 125.999C127.494 125.517 127.674 124.914 128.005 124.13C128.456 123.046 128.937 122.112 129.508 120.786C130.049 119.58 130.651 118.104 130.952 116.537C131.824 117.29 132.515 118.285 133.237 119.46C133.958 120.695 134.53 121.931 135.281 123.377C136.033 124.763 136.875 126.24 137.987 127.566L138.709 128.349C140.363 130.157 142.167 131.634 143.76 133.02C145.595 134.647 147.279 136.244 148.692 138.384L149.173 139.107C151.458 142.753 152.48 146.309 153.833 150.286C155.247 154.475 156.99 158.874 160.989 163.244C161.41 163.695 161.861 163.997 162.222 164.208C162.523 164.358 162.914 164.569 163.034 164.63C163.154 164.69 163.215 164.72 163.245 164.75C163.545 165.383 163.756 166.287 163.846 167.492C163.966 168.728 163.936 170.144 163.876 171.681C163.786 174.543 163.485 178.129 163.876 180.781L164.026 181.625C164.447 183.614 165.199 185.632 166.011 187.591C167.003 189.972 167.965 192.111 168.897 194.462C170.702 199.132 171.573 203.26 170.1 206.907L169.829 207.539L169.95 208.202L172.054 221.28L173.859 220.979L176.745 221.581L176.895 221.039V220.828C177.316 216.7 177.587 212.813 178.279 208.956C179.481 202.236 180.083 196.48 184.082 192.141L185.826 190.333C187.54 188.586 189.133 187.079 190.847 185.391C193.072 183.162 195.297 180.751 197.582 177.497L200.559 173.248C203.686 168.667 207.204 163.394 209.579 159.296L210.031 158.513C214.541 150.256 217.156 137.721 216.736 125.637ZM122.202 128.741V128.439C122.202 128.711 122.202 129.012 122.262 129.283C122.232 129.102 122.202 128.922 122.202 128.741ZM169.439 152.998C167.995 151.702 166.823 150.105 165.65 148.328C164.327 146.278 162.884 143.687 161.23 141.517L160.478 140.583C159.456 139.378 157.832 138.293 156.69 137.54C156.058 137.118 155.547 136.756 155.126 136.425C154.886 136.244 154.766 136.123 154.675 136.033L154.585 135.943L154.404 135.641C154.074 134.948 154.014 134.165 153.653 132.508C153.352 130.85 152.751 128.891 151.007 126.933L150.646 126.571L150.015 125.999C148.511 124.733 146.767 124.1 145.504 123.648C144.061 123.106 143.309 122.805 142.889 122.413L142.708 122.262L142.528 122.021C142.137 121.418 141.746 120.394 141.325 118.767C140.904 117.17 140.423 114.91 139.792 112.981C139.13 111.053 138.138 108.883 136.274 107.407C135.191 106.593 133.988 106.05 132.605 105.84C132.936 105.237 133.387 104.604 133.898 103.971C135.311 102.224 137.176 100.506 139.341 98.8788C143.67 95.6244 148.872 92.9424 152.631 91.5262C164.297 87.1568 179.451 88.3019 190.757 93.6958L191.027 93.8464C191.629 94.1779 191.899 94.5698 192.23 95.082C192.561 95.6545 193.252 97.0707 194.515 98.1253L194.906 98.4268C195.808 99.0898 196.831 99.4814 197.703 99.7525C198.184 99.9334 198.695 100.084 199.176 100.205C199.627 100.325 200.048 100.446 200.469 100.566C201.281 100.837 201.732 101.048 202.002 101.259C202.153 101.38 202.213 101.47 202.243 101.741V101.952C202.243 101.952 202.123 102.284 202.002 102.525C201.762 103.037 201.371 103.61 200.8 104.333C200.529 104.664 200.258 105.026 199.958 105.388C199.657 105.779 199.326 106.171 199.025 106.563C198.574 107.135 198.123 107.798 197.703 108.491L197.342 109.214C196.41 111.143 195.928 113.072 195.477 114.668C195.027 116.356 194.576 117.772 193.764 119.158L193.463 119.671C192.681 120.846 191.629 121.871 190.336 123.046C189.133 124.16 187.69 125.456 186.427 127.053L185.916 127.746C184.743 129.434 183.871 131.212 183.119 132.809C182.518 134.074 182.007 135.189 181.406 136.244L180.774 137.299C178.85 140.282 176.715 143.175 174.52 146.098C172.836 148.358 171.092 150.648 169.439 152.998ZM208.437 136.756C207.505 142.964 205.671 148.9 202.844 153.541L202.243 154.444C201.311 155.861 199.898 157.398 198.304 159.175C197.011 160.622 195.568 162.279 194.545 163.937L194.155 164.66C193.192 166.558 192.892 168.547 192.621 170.053C192.35 171.5 192.14 172.494 191.719 173.308L191.539 173.639C191.118 174.302 190.396 175.116 189.344 176.11C188.291 177.105 187.119 178.129 185.826 179.214C183.39 181.293 180.504 183.764 178.97 186.235V186.295L176.926 189.821C176.865 189.67 176.835 189.49 176.745 189.339C176.174 187.742 175.001 186.476 174.37 185.753C173.979 185.301 173.738 185 173.588 184.728C173.498 184.608 173.468 184.518 173.438 184.487V184.427C173.287 183.252 173.618 181.745 174.099 179.485C174.46 177.677 174.911 175.477 174.851 173.278L174.791 172.314L174.7 171.681C174.4 170.204 173.648 168.577 173.107 167.492C172.926 167.131 172.746 166.739 172.566 166.438C172.566 166.407 172.656 166.377 172.686 166.347C173.017 166.046 173.438 165.684 173.799 165.353C174.159 165.021 174.58 164.599 174.941 164.117L175.783 162.882C176.775 161.345 178.248 159.025 179.632 156.735C180.534 155.228 181.436 153.691 182.187 152.396C182.849 151.16 183.48 149.924 183.751 149.141L183.931 148.508C184.292 147.032 184.292 145.555 184.292 144.531C184.292 143.145 184.352 142.632 184.503 142.391C184.533 142.361 184.653 142.21 184.924 141.909C185.254 141.547 185.675 141.095 186.156 140.613C187.058 139.739 188.261 138.534 188.923 137.63L190.005 136.093C191.057 134.526 192.05 132.929 193.012 131.453C194.335 129.434 195.628 127.566 197.191 125.908C198.003 125.034 198.995 124.341 200.318 123.226C201.551 122.232 202.995 120.966 204.077 119.279L204.618 118.375C205.671 116.416 206.001 114.668 206.182 113.072C206.212 113.102 206.212 113.132 206.242 113.192C207.294 115.03 208.046 116.386 208.317 117.802L208.467 118.857C209.309 124.221 209.339 130.549 208.437 136.756Z" fill="#B4997B"/>
</g>
<defs>
<clipPath id="clip0_146_910">
<rect width="331" height="311" fill="white"/>
</clipPath>
</defs>
</svg>
