<svg width="65" height="26" viewBox="0 0 65 26" fill="none" xmlns="http://www.w3.org/2000/svg">
<path d="M7.40109 26.0001C8.0366 23.6028 8.67009 21.2076 9.31165 18.7903C9.0292 18.9248 8.76491 19.0413 8.49659 19.1437C7.48785 19.5252 6.44683 19.74 5.36344 19.7139C4.22356 19.6858 3.15429 19.4087 2.20406 18.7622C1.10453 18.0153 0.434726 16.9774 0.144208 15.6924C-0.0898198 14.6524 -0.0272777 13.6164 0.2471 12.5925C0.723226 10.8177 1.69565 9.33997 3.03324 8.09518C4.23163 6.97889 5.61159 6.1758 7.19733 5.73811C8.35133 5.42089 9.51945 5.33456 10.6977 5.58553C11.9404 5.85055 12.9855 6.44684 13.7703 7.45673C14.3776 8.23974 14.7003 9.1392 14.8032 10.117C14.9001 11.0325 14.775 11.9239 14.5329 12.8053C14.2061 13.9999 13.8913 15.1985 13.5726 16.3951C12.8846 18.9891 12.2148 21.5891 11.5026 24.177C11.2222 25.195 10.4979 25.7913 9.45086 25.982C9.43875 25.984 9.42867 25.992 9.41656 25.9981C8.74676 26.0001 8.07292 26.0001 7.40109 26.0001ZM3.77366 13.504C3.7777 13.5723 3.7777 13.6807 3.79182 13.7871C3.91892 14.8452 4.46969 15.578 5.4865 15.9414C6.0514 16.1421 6.63647 16.1542 7.2175 16.0317C8.61764 15.7346 9.68085 14.9536 10.4435 13.761C10.8853 13.0683 11.1213 12.3094 11.0729 11.4782C11.0084 10.388 10.3184 9.51464 9.2713 9.20545C8.69632 9.0348 8.11528 9.0348 7.53627 9.16932C6.26122 9.46646 5.2666 10.1812 4.52618 11.2453C4.06216 11.9099 3.79182 12.6467 3.77366 13.504Z" fill="#F8F7F5"/>
<path d="M47.0848 0.00200784C46.7661 1.20262 46.4494 2.40324 46.1306 3.60184C46.1024 3.62393 46.0721 3.61389 46.0418 3.61389C45.4608 3.61389 44.8778 3.61791 44.2968 3.61389C43.8872 3.61188 43.52 3.48941 43.2416 3.17621C42.9027 2.79675 42.8422 2.34501 42.9592 1.86918C43.1145 1.24478 43.288 0.622392 43.4535 0C44.6639 0 45.8744 1.22511e-07 47.0848 0.00200784Z" fill="#F8F7F5"/>
<path d="M65 5.50158C64.9213 5.71039 64.8769 5.92923 64.8205 6.14606C64.6732 6.69016 64.532 7.23626 64.3887 7.78236C64.3766 7.82854 64.3584 7.85464 64.302 7.85263C63.5333 7.85062 62.7626 7.85063 61.994 7.85063C61.9819 7.85063 61.9698 7.84661 61.9496 7.8446C62.1614 7.04352 62.3733 6.24846 62.5851 5.44336C63.3901 5.44336 64.195 5.44336 65 5.44336C65 5.46143 65 5.48151 65 5.50158Z" fill="#F8F7F5"/>
<path d="M20.876 19.7182C20.1598 19.7142 19.1914 19.5255 18.2977 19.0396C16.8733 18.2667 16.0381 17.066 15.7375 15.49C15.5519 14.5162 15.6245 13.5505 15.8807 12.5968C16.3447 10.8702 17.2788 9.42263 18.564 8.19189C19.6938 7.11174 20.997 6.31467 22.492 5.83683C23.3595 5.55977 24.2492 5.41521 25.1611 5.44533C26.3433 5.48347 27.4449 5.78865 28.4112 6.49135C29.5027 7.28641 30.1382 8.37058 30.3763 9.68765C30.5962 10.9003 30.4368 12.0809 30.0212 13.2313C29.418 14.9037 28.3911 16.281 27.0353 17.4214C25.8813 18.3911 24.5801 19.0878 23.1134 19.4653C22.4658 19.6339 21.804 19.7162 20.876 19.7182ZM19.4093 13.5023C19.4133 13.5706 19.4133 13.679 19.4274 13.7854C19.5545 14.8435 20.1033 15.5783 21.1181 15.9397C21.683 16.1425 22.268 16.1545 22.8491 16.0321C24.2532 15.7349 25.3185 14.9519 26.0811 13.7553C26.5209 13.0646 26.7549 12.3077 26.7065 11.4805C26.6419 10.3904 25.954 9.51699 24.9069 9.20579C24.3319 9.03514 23.7509 9.03514 23.1719 9.16966C21.8968 9.4668 20.9022 10.1815 20.1598 11.2436C19.6978 11.9082 19.4274 12.645 19.4093 13.5023Z" fill="#F8F7F5"/>
<path d="M43.1769 19.7182C43.1669 19.654 43.2133 19.6319 43.2415 19.6038C44.9725 17.9013 46.7035 16.1987 48.4345 14.4982C49.0619 13.8818 49.6874 13.2654 50.3148 12.6511C50.3652 12.6009 50.3773 12.5647 50.343 12.4965C49.2133 10.1816 48.0855 7.86464 46.9557 5.54773C46.9416 5.51762 46.9295 5.4875 46.9174 5.4614C46.9335 5.43731 46.9517 5.44333 46.9678 5.44333C47.5932 5.44333 48.2186 5.43731 48.8441 5.44534C49.4271 5.45337 49.9718 5.60595 50.454 5.94526C50.801 6.1902 51.0693 6.50341 51.2489 6.88688C51.7048 7.86264 52.189 8.82634 52.6571 9.79607C52.7156 9.91654 52.7741 10.035 52.8508 10.1916C53.0969 9.93461 53.3249 9.68966 53.5609 9.45476C54.3921 8.63159 55.2334 7.81847 56.0586 6.98727C56.7506 6.2926 57.5475 5.78866 58.5058 5.55175C58.7903 5.48148 59.0788 5.44132 59.3733 5.44132C59.9785 5.43931 60.5838 5.44132 61.189 5.44132C61.2092 5.44132 61.2274 5.44132 61.2617 5.44132C61.0861 5.618 60.9227 5.78263 60.7573 5.94526C58.53 8.13368 56.3047 10.3221 54.0774 12.5105C54.027 12.5607 54.0189 12.5989 54.0512 12.6651C55.1749 14.968 56.2966 17.2748 57.4204 19.5797C57.4406 19.6199 57.4748 19.658 57.4426 19.7142C57.4224 19.7162 57.3982 19.7182 57.376 19.7182C56.7708 19.7182 56.1655 19.7283 55.5603 19.7162C54.7835 19.7002 54.0976 19.4532 53.5549 18.877C53.3673 18.6782 53.228 18.4453 53.111 18.2004C52.6026 17.1443 52.0902 16.0923 51.5798 15.0382C51.5757 15.0302 51.5677 15.0222 51.5616 15.0121C51.5273 15.0141 51.5132 15.0423 51.493 15.0623C50.4722 16.0662 49.4433 17.062 48.4325 18.0759C47.9745 18.5357 47.4843 18.9433 46.9012 19.2364C46.2556 19.5596 45.5737 19.7323 44.8474 19.7223C44.2906 19.7102 43.7358 19.7182 43.1769 19.7182Z" fill="#F8F7F5"/>
<path d="M29.6498 19.714C29.7244 19.4309 29.795 19.1579 29.8677 18.8828C30.0634 18.144 30.2611 17.4052 30.4568 16.6663C30.6545 15.9215 30.8502 15.1746 31.0479 14.4297C31.3848 13.1548 31.7237 11.8799 32.0627 10.605C32.2079 10.0569 32.3431 9.50477 32.5025 8.96067C32.7527 8.1094 33.2369 7.39666 33.8885 6.79836C34.5825 6.1599 35.3855 5.72222 36.3196 5.53751C36.5052 5.50137 36.6908 5.47727 36.8784 5.46924C38.1373 5.41704 39.3962 5.4592 40.6571 5.44716C40.6632 5.44716 40.6693 5.44917 40.6914 5.45519C40.3727 6.6538 40.0559 7.85241 39.7392 9.04901C39.7029 9.06909 39.6645 9.05905 39.6302 9.05905C39.0997 9.05905 38.567 9.05905 38.0364 9.05905C37.0237 9.06307 36.3095 9.55697 35.8112 10.4022C35.6518 10.6713 35.5973 10.9764 35.5186 11.2736C35.1857 12.5224 34.8529 13.7712 34.522 15.02C34.1669 16.3631 33.8118 17.7063 33.4588 19.0495C33.4003 19.2723 33.3397 19.4932 33.2792 19.716C32.0708 19.714 30.8683 19.714 29.6498 19.714Z" fill="#F8F7F5"/>
<path d="M42.013 5.44446C42.6627 5.44446 43.3022 5.42639 43.9417 5.44848C44.779 5.47659 45.3358 6.16323 45.2148 6.9884C45.1563 7.39597 45.0231 7.78748 44.9182 8.183C44.0426 11.4937 43.163 14.8045 42.2854 18.1152C42.1502 18.6212 42.0171 19.1291 41.8819 19.6351C41.8758 19.6612 41.8657 19.6852 41.8597 19.7113C40.6492 19.7113 39.4427 19.7113 38.2302 19.7113C39.4912 14.955 40.7501 10.2028 42.013 5.44446Z" fill="#F8F7F5"/>
</svg>
